<?xml version="1.0" encoding="utf-8"?>
<!-- Generator: Adobe Illustrator 21.0.0, SVG Export Plug-In . SVG Version: 6.00 Build 0)  -->
<svg version="1.1" id="Layer_2" xmlns="http://www.w3.org/2000/svg" xmlns:xlink="http://www.w3.org/1999/xlink" x="0px" y="0px"
	 viewBox="0 0 841.9 595.3" style="enable-background:new 0 0 841.9 595.3;" xml:space="preserve">
<style type="text/css">
	.st0{opacity:0.23;fill:#F2F2F2;}
	.st1{opacity:0.23;fill:#F2F2F2;enable-background:new    ;}
</style>
<path class="st0" d="M187.1,184.8c-1.3,0-2.5-0.3-3.7-1c-3.6-2.1-4.8-6.6-2.8-10.2c22.1-38.7,53.1-69.3,92-90.7
	c38.8-21.4,83.9-32.2,134.1-32.2c48.2,0,92.3,10.4,130.9,30.8c3.7,1.9,5.1,6.5,3.1,10.1c-1.9,3.7-6.5,5.1-10.1,3.1
	c-36.5-19.3-78.2-29.1-123.9-29.1c-47.6,0-90.3,10.2-126.9,30.4c-36.4,20.1-65.4,48.7-86.2,85C192.2,183.4,189.7,184.8,187.1,184.8z
	"/>
<path class="st1" d="M406,560.3c-51.3,0-98.6-11.6-140.6-34.4c-42.1-22.8-75.3-54.7-98.8-94.8c-23.5-40-35.4-84.8-35.4-133.1
	c0-46.7,11.9-91.1,35.3-132.2c23.5-41.1,56.3-73.5,97.6-96.2c41.2-22.7,89.2-34.2,142.5-34.2c51.2,0,98,11,139.1,32.7
	c41.2,21.8,74.4,53.6,98.8,94.6c24.4,41,36.8,86.5,36.8,135.3c0,47.6-12.1,92.4-35.9,133.1c-23.8,40.7-57,72.8-98.6,95.3
	C505.4,549,458,560.3,406,560.3z M406.7,46.5c-51.5,0-97.7,11.1-137.2,32.8c-39.5,21.8-70.9,52.7-93.3,92
	c-22.5,39.4-33.9,82-33.9,126.7c0,46.4,11.4,89.3,33.9,127.6s54.3,68.8,94.6,90.7c40.4,21.9,85.9,33,135.3,33
	c50.1,0,95.8-10.9,135.7-32.5c39.8-21.5,71.6-52.2,94.4-91.2c22.8-39,34.4-81.9,34.4-127.6c0-46.8-11.9-90.4-35.2-129.7
	c-23.4-39.2-55.2-69.6-94.5-90.5C501.2,57,456.1,46.5,406.7,46.5z"/>
<path class="st1" d="M406,519.4c-43.3,0-83.2-9.8-118.7-29c-35.5-19.2-63.6-46.2-83.4-80c-19.8-33.8-29.9-71.6-29.9-112.3
	c0-39.4,10-76.9,29.8-111.6c19.8-34.7,47.5-62,82.4-81.2C321,86,361.6,76.3,406.5,76.3c43.2,0,82.7,9.3,117.4,27.6
	c34.8,18.4,62.8,45.2,83.4,79.8c20.6,34.6,31.1,73,31.1,114.2c0,40.2-10.2,78-30.3,112.3s-48.1,61.4-83.2,80.4
	C489.9,509.8,449.9,519.4,406,519.4z M406.6,80.3c-44.6,0-84.5,9.6-118.7,28.4c-34.2,18.9-61.4,45.6-80.7,79.6
	c-19.5,34.1-29.3,71-29.3,109.6c0,40.2,9.9,77.3,29.3,110.4s47,59.5,81.9,78.5c35,19,74.3,28.6,117.1,28.6
	c43.4,0,82.9-9.4,117.4-28.1c34.4-18.6,62-45.2,81.7-78.9C625,374.7,635,337.5,635,298c0-40.5-10.3-78.2-30.5-112.2
	c-20.3-33.9-47.8-60.2-81.8-78.3C488.4,89.4,449.4,80.3,406.6,80.3z"/>
<path class="st0" d="M406.2,452.4c-30.1,0-57.9-6.8-82.6-20.2c-24.8-13.5-44.3-32.2-58.2-55.8c-13.8-23.6-20.8-49.9-20.8-78.4
	c0-27.5,7-53.6,20.8-77.8c13.8-24.2,33.2-43.3,57.5-56.7c24.2-13.4,52.4-20.1,83.8-20.1c30.1,0,57.6,6.5,81.7,19.2
	c24.2,12.8,43.8,31.6,58.2,55.7s21.7,50.9,21.7,79.7c0,28-7.1,54.4-21.1,78.4s-33.6,42.9-58.1,56.1
	C464.5,445.7,436.7,452.4,406.2,452.4z M406.6,154.4c-29.5,0-55.9,6.3-78.5,18.8c-22.5,12.4-40.4,30.1-53.2,52.5
	c-12.8,22.5-19.3,46.8-19.3,72.3c0,26.5,6.5,51,19.3,72.8c12.8,21.8,31,39.2,53.9,51.7c23.1,12.5,49.1,18.9,77.4,18.9
	c28.7,0,54.8-6.2,77.6-18.6c22.7-12.3,40.8-29.8,53.8-52c13-22.3,19.6-46.8,19.6-72.8c0-26.7-6.8-51.6-20.1-74s-31.5-39.7-53.9-51.6
	C460.6,160.4,434.8,154.4,406.6,154.4z"/>
<path class="st0" d="M625.1,427.2c-1.3,0-2.6-0.3-3.8-1c-3.6-2.1-4.8-6.7-2.7-10.3c21.1-36,31.8-75.7,31.8-117.9
	c0-43.3-11-83.6-32.6-119.8c-2.1-3.6-1-8.2,2.6-10.3s8.2-1,10.3,2.6c23,38.6,34.7,81.5,34.7,127.5c0,44.9-11.4,87.1-33.8,125.4
	C630.2,425.9,627.7,427.2,625.1,427.2z"/>
<path class="st0" d="M187.1,427.2c-2.6,0-5.1-1.3-6.5-3.7c-22.1-37.7-33.3-79.9-33.3-125.4c0-4.1,3.4-7.5,7.5-7.5s7.5,3.4,7.5,7.5
	c0,42.8,10.5,82.5,31.3,117.9c2.1,3.6,0.9,8.2-2.7,10.3C189.7,426.9,188.4,427.2,187.1,427.2z"/>
<path class="st0" d="M406,545.2c-4.1,0-7.5-3.4-7.5-7.5s3.4-7.5,7.5-7.5c42.6,0,81.8-8.5,116.4-25.4c3.7-1.8,8.2-0.3,10,3.5
	c1.8,3.7,0.3,8.2-3.5,10C492.3,536.1,451,545.2,406,545.2z"/>
<path class="st0" d="M155.6,285.6c-0.2,0-0.4,0-0.6,0c-4.1-0.3-7.2-3.9-6.9-8.1c1.5-18.7,5.1-37.2,10.8-55c1.3-3.9,5.5-6.1,9.4-4.9
	c3.9,1.3,6.1,5.5,4.9,9.4c-5.3,16.6-8.7,34-10.1,51.6C162.7,282.7,159.4,285.6,155.6,285.6z"/>
<path class="st0" d="M277.3,513.7c-1.2,0-2.4-0.3-3.6-0.9c-7.8-4.2-15.4-8.9-22.5-13.7c-7.1-4.9-14.1-10.2-20.5-15.7
	c-6.7-5.8-13.2-11.9-19.2-18.4c-6.7-7.2-13.1-15-18.9-23.1c-2.4-3.4-1.6-8.1,1.7-10.5c3.4-2.4,8.1-1.6,10.5,1.7
	c5.4,7.6,11.4,14.8,17.7,21.6c5.6,6,11.6,11.8,18,17.2c6.1,5.2,12.5,10.1,19.2,14.7c6.7,4.6,13.9,8.9,21.2,12.9c3.6,2,5,6.5,3,10.2
	C282.5,512.3,280,513.7,277.3,513.7z"/>
<path class="st0" d="M331.3,535.5c-0.7,0-1.3-0.1-2-0.3c-5.2-1.4-10.5-3.1-15.6-4.8c-3.9-1.3-6-5.6-4.7-9.5s5.6-6,9.5-4.7
	c4.8,1.7,9.8,3.2,14.7,4.5c4,1.1,6.3,5.2,5.2,9.2C337.6,533.3,334.6,535.5,331.3,535.5z"/>
<path class="st0" d="M383.9,544.4c-0.2,0-0.4,0-0.6,0c-10.6-0.8-21.1-2.1-31.3-4c-4.1-0.8-6.8-4.7-6-8.7c0.7-4.1,4.7-6.8,8.7-6
	c9.6,1.8,19.6,3,29.7,3.8c4.1,0.3,7.2,3.9,6.9,8C391.1,541.4,387.8,544.4,383.9,544.4z"/>
<path class="st0" d="M544.4,508.9c-2.6,0-5-1.3-6.4-3.7c-2.1-3.6-1-8.2,2.6-10.3c2.1-1.3,4.3-2.6,6.3-3.9c3.5-2.2,8.1-1.2,10.4,2.3
	c2.2,3.5,1.2,8.1-2.3,10.4c-2.2,1.4-4.5,2.8-6.7,4.2C547,508.6,545.7,508.9,544.4,508.9z"/>
<path class="st0" d="M580.4,482.4c-2.1,0-4.1-0.8-5.6-2.5c-2.8-3.1-2.5-7.8,0.6-10.6c12.1-10.9,23-23.2,32.5-36.7
	c2.4-3.4,7.1-4.2,10.5-1.8c3.4,2.4,4.2,7.1,1.8,10.5c-10.2,14.4-21.9,27.6-34.8,39.2C584,481.8,582.2,482.4,580.4,482.4z"/>
<g>
	<path class="st0" d="M241.5,212.9c-1,0-1.9-0.2-2.8-0.8c-2.7-1.6-3.6-5-2.1-7.7c16.6-29.1,39.9-52.1,69.2-68.2
		c29.2-16.1,63.1-24.2,100.9-24.2c36.2,0,69.4,7.8,98.4,23.2c2.8,1.4,3.8,4.9,2.3,7.6c-1.4,2.8-4.9,3.8-7.6,2.3
		c-27.5-14.5-58.8-21.9-93.2-21.9c-35.8,0-67.9,7.7-95.4,22.9c-27.4,15.1-49.2,36.6-64.8,63.9C245.3,211.8,243.4,212.9,241.5,212.9z
		"/>
	<path class="st0" d="M570.9,395.2c-1,0-2-0.2-2.9-0.8c-2.7-1.6-3.6-5-2-7.7c15.9-27.1,23.9-56.9,23.9-88.7
		c0-32.6-8.3-62.9-24.5-90.1c-1.6-2.7-0.8-6.2,2-7.7c2.7-1.6,6.2-0.8,7.7,2c17.3,29,26.1,61.3,26.1,95.9c0,33.8-8.6,65.5-25.4,94.3
		C574.7,394.2,572.8,395.2,570.9,395.2z"/>
	<path class="st0" d="M241.5,395.2c-2,0-3.8-1-4.9-2.8c-16.6-28.4-25-60.1-25-94.3c0-3.1,2.6-5.6,5.6-5.6c3.1,0,5.6,2.6,5.6,5.6
		c0,32.2,7.9,62,23.5,88.7c1.6,2.7,0.7,6.2-2,7.7C243.4,394.9,242.4,395.2,241.5,395.2z"/>
	<path class="st0" d="M406.1,483.9c-3.1,0-5.6-2.6-5.6-5.6c0-3.1,2.6-5.6,5.6-5.6c32,0,61.5-6.4,87.5-19.1c2.8-1.4,6.2-0.2,7.5,2.6
		c1.4,2.8,0.2,6.2-2.6,7.5C471,477.1,439.9,483.9,406.1,483.9z"/>
	<path class="st0" d="M217.8,288.7c-0.2,0-0.3,0-0.5,0c-3.1-0.2-5.4-2.9-5.2-6.1c1.1-14.1,3.8-28,8.1-41.4c1-2.9,4.1-4.6,7.1-3.7
		c2.9,1,4.6,4.1,3.7,7.1c-4,12.5-6.5,25.6-7.6,38.8C223.1,286.5,220.6,288.7,217.8,288.7z"/>
	<path class="st0" d="M309.3,460.2c-0.9,0-1.8-0.2-2.7-0.7c-5.9-3.2-11.6-6.7-16.9-10.3c-5.3-3.7-10.6-7.7-15.4-11.8
		c-5-4.4-9.9-8.9-14.4-13.8c-5-5.4-9.9-11.3-14.2-17.4c-1.8-2.6-1.2-6.1,1.3-7.9c2.6-1.8,6.1-1.2,7.9,1.3
		c4.1,5.7,8.6,11.1,13.3,16.2c4.2,4.5,8.7,8.9,13.5,12.9c4.6,3.9,9.4,7.6,14.4,11.1c5,3.5,10.5,6.7,15.9,9.7
		c2.7,1.5,3.8,4.9,2.3,7.7C313.2,459.2,311.3,460.2,309.3,460.2z"/>
	<path class="st0" d="M349.9,476.6c-0.5,0-1-0.1-1.5-0.2c-3.9-1.1-7.9-2.3-11.7-3.6c-2.9-1-4.5-4.2-3.5-7.1s4.2-4.5,7.1-3.5
		c3.6,1.3,7.4,2.4,11.1,3.4c3,0.8,4.7,3.9,3.9,6.9C354.6,475,352.4,476.6,349.9,476.6z"/>
	<path class="st0" d="M389.5,483.3c-0.2,0-0.3,0-0.5,0c-8-0.6-15.9-1.6-23.5-3c-3.1-0.6-5.1-3.5-4.5-6.5c0.5-3.1,3.5-5.1,6.5-4.5
		c7.2,1.4,14.7,2.3,22.3,2.9c3.1,0.2,5.4,2.9,5.2,6C394.9,481,392.4,483.3,389.5,483.3z"/>
	<path class="st0" d="M510.2,456.6c-2,0-3.8-1-4.8-2.8c-1.6-2.7-0.8-6.2,2-7.7c1.6-1,3.2-2,4.7-2.9c2.6-1.7,6.1-0.9,7.8,1.7
		c1.7,2.6,0.9,6.1-1.7,7.8c-1.7,1.1-3.4,2.1-5,3.2C512.1,456.4,511.2,456.6,510.2,456.6z"/>
	<path class="st0" d="M537.2,436.7c-1.6,0-3.1-0.6-4.2-1.9c-2.1-2.3-1.9-5.9,0.5-8c9.1-8.2,17.3-17.4,24.4-27.6
		c1.8-2.6,5.3-3.2,7.9-1.4c2.6,1.8,3.2,5.3,1.4,7.9c-7.7,10.8-16.5,20.8-26.2,29.5C540,436.2,538.6,436.7,537.2,436.7z"/>
</g>
<path class="st0" d="M287.5,236.6c-0.7,0-1.4-0.2-2-0.5c-2-1.1-2.6-3.6-1.5-5.5c12-21,28.8-37.5,49.8-49.1
	c21-11.6,45.5-17.4,72.6-17.4c26.1,0,50,5.6,70.9,16.7c2,1,2.8,3.5,1.7,5.5c-1,2-3.5,2.8-5.5,1.7c-19.8-10.5-42.4-15.8-67.1-15.8
	c-25.8,0-48.9,5.5-68.7,16.5c-19.7,10.9-35.4,26.4-46.7,46C290.3,235.8,288.9,236.6,287.5,236.6z"/>
<path class="st1" d="M406.1,440c-27.8,0-53.4-6.3-76.2-18.6c-22.8-12.4-40.8-29.6-53.5-51.4c-12.7-21.7-19.2-45.9-19.2-72.1
	c0-25.3,6.4-49.4,19.1-71.6c12.7-22.3,30.5-39.8,52.9-52.1c22.3-12.3,48.3-18.5,77.2-18.5c27.7,0,53.1,6,75.4,17.7
	c22.3,11.8,40.3,29,53.5,51.2c13.2,22.2,19.9,46.9,19.9,73.3c0,25.8-6.6,50.1-19.4,72.1c-12.9,22-30.9,39.4-53.4,51.6
	C460,433.9,434.3,440,406.1,440z M406.5,161.7c-27.9,0-52.9,6-74.3,17.8c-21.4,11.8-38.4,28.6-50.5,49.8
	c-12.2,21.3-18.4,44.4-18.4,68.6c0,25.1,6.2,48.4,18.4,69.1c12.2,20.7,29.4,37.3,51.2,49.1c21.9,11.9,46.5,17.9,73.3,17.9
	c27.1,0,51.9-5.9,73.5-17.6c21.6-11.6,38.8-28.3,51.1-49.4c12.4-21.1,18.6-44.4,18.6-69.1c0-25.4-6.4-49-19.1-70.3
	c-12.7-21.2-29.9-37.7-51.2-49C457.7,167.4,433.3,161.7,406.5,161.7z"/>
<path class="st1" d="M406.1,417.9c-23.5,0-45.1-5.3-64.3-15.7c-19.3-10.4-34.4-25-45.2-43.3c-10.7-18.3-16.2-38.8-16.2-60.9
	c0-21.4,5.4-41.7,16.1-60.4c10.7-18.8,25.7-33.6,44.6-44c18.8-10.4,40.8-15.6,65.2-15.6c23.4,0,44.8,5,63.6,15
	c18.8,10,34,24.5,45.2,43.3c11.2,18.7,16.8,39.6,16.8,61.9c0,21.8-5.5,42.3-16.4,60.9c-10.9,18.6-26.1,33.3-45.1,43.6
	C451.6,412.7,429.9,417.9,406.1,417.9z M406.5,180c-24.1,0-45.8,5.2-64.3,15.4c-18.5,10.2-33.2,24.7-43.7,43.1
	c-10.5,18.5-15.9,38.4-15.9,59.4c0,21.8,5.3,41.9,15.9,59.8c10.5,18,25.5,32.3,44.4,42.5c18.9,10.3,40.3,15.5,63.4,15.5
	c23.5,0,44.9-5.1,63.6-15.2c18.7-10.1,33.6-24.5,44.3-42.8c10.7-18.3,16.1-38.4,16.1-59.8c0-21.9-5.6-42.4-16.5-60.8
	c-11-18.4-25.9-32.6-44.3-42.4C450.8,184.9,429.6,180,406.5,180z"/>
<path class="st0" d="M524.8,367.9c-0.7,0-1.4-0.2-2.1-0.5c-2-1.1-2.6-3.6-1.5-5.6c11.4-19.5,17.2-41,17.2-63.9
	c0-23.5-6-45.3-17.7-64.9c-1.1-2-0.5-4.4,1.4-5.6c2-1.1,4.4-0.5,5.6,1.4c12.5,20.9,18.8,44.2,18.8,69.1c0,24.3-6.2,47.2-18.3,67.9
	C527.6,367.2,526.2,367.9,524.8,367.9z"/>
<path class="st0" d="M287.5,367.9c-1.4,0-2.8-0.7-3.5-2c-12-20.4-18-43.3-18-67.9c0-2.2,1.8-4.1,4.1-4.1s4.1,1.8,4.1,4.1
	c0,23.2,5.7,44.7,17,63.9c1.1,2,0.5,4.4-1.5,5.6C288.9,367.8,288.2,367.9,287.5,367.9z"/>
<path class="st0" d="M406.1,431.9c-2.2,0-4.1-1.8-4.1-4.1c0-2.2,1.8-4.1,4.1-4.1c23.1,0,44.3-4.6,63.1-13.8c2-1,4.4-0.2,5.4,1.9
	c1,2,0.2,4.4-1.9,5.4C452.9,426.9,430.5,431.9,406.1,431.9z"/>
<path class="st0" d="M270.5,291.2c-0.1,0-0.2,0-0.3,0c-2.2-0.2-3.9-2.1-3.7-4.4c0.8-10.1,2.8-20.2,5.9-29.8c0.7-2.1,3-3.3,5.1-2.7
	c2.1,0.7,3.3,3,2.7,5.1c-2.9,9-4.7,18.4-5.5,28C274.3,289.6,272.5,291.2,270.5,291.2z"/>
<path class="st0" d="M336.4,414.8c-0.7,0-1.3-0.2-2-0.5c-4.2-2.3-8.3-4.8-12.2-7.4c-3.8-2.7-7.6-5.5-11.1-8.5
	c-3.6-3.1-7.2-6.4-10.4-10c-3.6-3.9-7.1-8.1-10.2-12.5c-1.3-1.8-0.9-4.4,0.9-5.7c1.8-1.3,4.4-0.9,5.7,0.9c2.9,4.1,6.2,8,9.6,11.7
	c3,3.3,6.3,6.4,9.8,9.3c3.3,2.8,6.8,5.5,10.4,8c3.6,2.5,7.5,4.8,11.5,7c2,1.1,2.7,3.5,1.6,5.5C339.2,414,337.9,414.8,336.4,414.8z"
	/>
<path class="st0" d="M365.6,426.6c-0.4,0-0.7-0.1-1.1-0.2c-2.8-0.8-5.7-1.7-8.5-2.6c-2.1-0.7-3.3-3-2.5-5.1s3-3.3,5.1-2.5
	c2.6,0.9,5.3,1.7,8,2.4c2.2,0.6,3.4,2.8,2.8,5C369.1,425.4,367.4,426.6,365.6,426.6z"/>
<path class="st0" d="M394.1,431.4c-0.1,0-0.2,0-0.3,0c-5.7-0.4-11.4-1.1-17-2.2c-2.2-0.4-3.7-2.5-3.3-4.7c0.4-2.2,2.5-3.7,4.7-3.3
	c5.2,1,10.6,1.6,16.1,2.1c2.2,0.2,3.9,2.1,3.7,4.3C398,429.8,396.3,431.4,394.1,431.4z"/>
<path class="st0" d="M481.1,412.2c-1.4,0-2.7-0.7-3.5-2c-1.1-2-0.5-4.4,1.4-5.6c1.1-0.7,2.3-1.4,3.4-2.1c1.9-1.2,4.4-0.7,5.6,1.2
	c1.2,1.9,0.7,4.4-1.2,5.6c-1.2,0.8-2.4,1.5-3.6,2.3C482.5,412,481.8,412.2,481.1,412.2z"/>
<path class="st0" d="M500.6,397.8c-1.1,0-2.2-0.4-3-1.4c-1.5-1.7-1.4-4.2,0.3-5.7c6.6-5.9,12.5-12.6,17.6-19.9
	c1.3-1.8,3.8-2.3,5.7-1s2.3,3.8,1,5.7c-5.5,7.8-11.9,15-18.9,21.2C502.5,397.5,501.6,397.8,500.6,397.8z"/>
</svg>
