<?xml version="1.0" encoding="utf-8"?>
<!-- Generator: Adobe Illustrator 21.0.0, SVG Export Plug-In . SVG Version: 6.00 Build 0)  -->
<svg version="1.1" id="Layer_7" xmlns="http://www.w3.org/2000/svg" xmlns:xlink="http://www.w3.org/1999/xlink" x="0px" y="0px"
	 viewBox="0 0 2351.4 2021.1" style="enable-background:new 0 0 2351.4 2021.1;" xml:space="preserve">
<style type="text/css">
	.st0{fill:#FFFFFF;}
	.st1{fill:none;stroke:#272E44;stroke-width:31;stroke-linecap:round;stroke-linejoin:round;stroke-miterlimit:10;}
	.st2{fill:#272E44;}
	.st3{fill:#FFE05F;}
	.st4{fill:none;stroke:#FFE05F;stroke-width:12;stroke-miterlimit:10;}
	.st5{fill:none;stroke:#272E44;stroke-width:21;stroke-miterlimit:10;}
</style>
<circle class="st0" cx="1172.1" cy="1040.4" r="802.1"/>
<path class="st1" d="M1737.4,869.8c-15.2-281.3-241.1-516.3-521.5-543.1c-170.6-16.3-353.6,43.7-469.5,172.8
	C672.3,582.1,640,692,620,787c-8.5,40.5-24.1,97.8-33,133c-7.6,30-20.2,54.3-31.5,83.5c-86.9,226.1-164.3,455.3-244.5,683.8
	c-8.3,23.5-17,47-24.7,70.7c-2.2,6.8-7.1,19.3-4.6,24.3c10.8-19.4,112.4-201.4,222-391.1c155.1-268.5,251.5-424,286.7-462.1l8.8,8.1
	c-77.3,83.8-451.5,751.6-502.2,842.4c10.5-7.5,19.2-21.7,27.4-31c29.1-33.2,58.2-66.5,87.3-99.7c93.7-107,187.5-214,281.2-321
	c92.8-105.9,185.1-212.2,279.4-316.7c34.8-38.6,69.7-77,105.6-114.5c27.1-28.4,54.2-60.4,92.4-73.7c61.8-21.5,132,4.6,164,61.8
	c29.8,53.2,18.4,116.4-21.3,160.7c-71.2,79.3-142.3,158.7-213.4,238.1c-87.3,97.4-187.3,190.5-229.7,317.6
	c-10.9,32.6-18.4,66.3-22.3,100.4c-1.9,16.1-3,32.3-3.3,48.5c-0.1,4.8-2.5,18.3,0,22.3c2.3,3.7,19.8,8.4,23.9,10.1
	c-5.7-122.2,36.5-243.4,116.6-335.7c102-113.8,203.9-227.6,305.9-341.4c13.1-14.6,26.1-29.2,39.2-43.8c45-50.3,58.8-121,27.7-182.6
	c-33.5-66.4-110.6-100.6-182.4-82.1c-54.5,14-90.9,58.7-127.8,98c-88.7,94.6-174.6,191.8-260.7,288.7c-13-46.8-19.2-95.3-10.6-143.5
	c9.1-50.9,36.4-95.8,70.2-134.2c34.8-39.6,68.2-76.7,104.5-114.9c27-28.5,52.6-57.8,84.3-81c93.1-68.1,224.7-77.2,325.6-21.4
	c104.6,57.8,165.5,176.3,152.4,295c-13.2,119.2-104.9,200.3-180.5,284.7c-76.5,85.4-153,170.7-229.5,256.1
	c-48.1,53.6-82.1,116.1-92,188.4c-4,29.3-4.2,59.1-0.5,88.4c0.7,5.5,0.6,14.7,3,19.7c-0.8,6.3,2.1,8.8,8.7,7.7
	c5,0.9,10,1.8,15.1,2.7c17.5,2.9,35.1,5.2,52.7,6.9c53.6,5.1,107.2,4.1,160.7-1.1c-19.3-27.1-29-60-27.6-93.2
	c2.7-65,55.5-110.1,96-155.3c89-99.3,177.9-198.5,266.9-297.8C1688.9,1175.7,1745.6,1025.2,1737.4,869.8z M985.4,1445.9
	c1.3-1.5,2.6-3,3.9-4.4C988,1442.9,986.7,1444.4,985.4,1445.9z"/>
<path class="st0" d="M786.2,1204.6l277.9-313.5c0,0,79.4-112.1,187.2-79.8c107.8,32.1,112.9,149.3,109.9,170.1
	c-3.1,20.8-10.7,25.1-99.8,132.1c-89.1,106.9-281.3,297.6-343.5,408.1c-48.3,86-60,206.3-62.6,255.5c72.5,31,150.2,51.5,231.4,60
	c53.1-102.2,188.8-348.2,330.3-548.8c182.5-258.8,239.5-399.8,157-495.2s-263.1-176.9-263.1-176.9s-184.2,20.8-253.2,62.2
	c-69.1,41.4-175.6,177.3-175.6,177.3s-114.7,122.6-124.4,155.9C747.9,1044.5,742.8,1165.5,786.2,1204.6z"/>
<path class="st2" d="M1737.4,869.8c-15.2-281.3-241.1-516.3-521.5-543.1c-170.6-16.3-353.6,43.7-469.5,172.8
	C672.3,582.1,640,692,620,787c-8.5,40.5-24.1,97.8-33,133c-7.6,30-20.2,54.3-31.5,83.5c-86.9,226.1-164.3,455.3-244.5,683.8
	c-8.3,23.5-17,47-24.7,70.7c-2.2,6.8-7.1,19.3-4.6,24.3c10.8-19.4,112.4-201.4,222-391.1c155.1-268.5,251.5-424,286.7-462.1l8.8,8.1
	c-77.3,83.8-451.5,751.6-502.2,842.4c10.5-7.5,19.2-21.7,27.4-31c29.1-33.2,58.2-66.5,87.3-99.7c93.7-107,187.5-214,281.2-321
	c92.8-105.9,185.1-212.2,279.4-316.7c34.8-38.6,69.7-77,105.6-114.5c27.1-28.4,54.2-60.4,92.4-73.7c61.8-21.5,132,4.6,164,61.8
	c29.8,53.2,18.4,116.4-21.3,160.7c-71.2,79.3-142.3,158.7-213.4,238.1c-87.3,97.4-187.3,190.5-229.7,317.6
	c-10.9,32.6-18.4,66.3-22.3,100.4c-1.9,16.1-3,32.3-3.3,48.5c-0.1,4.8-2.5,18.3,0,22.3c2.3,3.7,19.8,8.4,23.9,10.1
	c-5.7-122.2,36.5-243.4,116.6-335.7c102-113.8,203.9-227.6,305.9-341.4c13.1-14.6,26.1-29.2,39.2-43.8c45-50.3,58.8-121,27.7-182.6
	c-33.5-66.4-110.6-100.6-182.4-82.1c-54.5,14-90.9,58.7-127.8,98c-88.7,94.6-174.6,191.8-260.7,288.7c-13-46.8-19.2-95.3-10.6-143.5
	c9.1-50.9,36.4-95.8,70.2-134.2c34.8-39.6,68.2-76.7,104.5-114.9c27-28.5,52.6-57.8,84.3-81c93.1-68.1,224.7-77.2,325.6-21.4
	c104.6,57.8,165.5,176.3,152.4,295c-13.2,119.2-104.9,200.3-180.5,284.7c-76.5,85.4-153,170.7-229.5,256.1
	c-48.1,53.6-82.1,116.1-92,188.4c-4,29.3-4.2,59.1-0.5,88.4c0.7,5.5,0.6,14.7,3,19.7c-0.8,6.3,2.1,8.8,8.7,7.7
	c5,0.9,10,1.8,15.1,2.7c17.5,2.9,35.1,5.2,52.7,6.9c53.6,5.1,107.2,4.1,160.7-1.1c-19.3-27.1-29-60-27.6-93.2
	c2.7-65,55.5-110.1,96-155.3c89-99.3,177.9-198.5,266.9-297.8C1688.9,1175.7,1745.6,1025.2,1737.4,869.8z M985.4,1445.9
	c1.3-1.5,2.6-3,3.9-4.4C988,1442.9,986.7,1444.4,985.4,1445.9z"/>
<path class="st3" d="M1688,514c21.8-12.4,41.3-27.4,58.3-44.6c-10.2-10.3-20.6-20.4-31.3-30.1c-8.2,4.7-16.9,8.9-25.9,12.5
	c-19.7,7.9-40,12.5-60,14.4C1649.6,481.2,1669.2,497.2,1688,514z"/>
<path class="st3" d="M920.1,704.1c-45.6,64.7-145.7-5.9-100.3-70.5C865.1,569.1,965.5,639.3,920.1,704.1z"/>
<path class="st2" d="M976.7,366.7c455.4-24.9,844.8,324.1,869.7,779.4c9.3,171.6-34.3,334-116.8,470.8
	c123.5-145.4,193.9-336.6,182.6-542.3c-23.3-425.8-387.5-752.1-813.3-728.8c-51.2,2.8-101,10.5-148.9,22.8
	C958.7,367.8,967.6,367.2,976.7,366.7z"/>
<path class="st2" d="M1804.4,183c42.1,106-9.3,226.1-115.2,268.7c-67.1,26.9-139.9,16.4-195.2-21.8
	c-18.4-12.8-169.2-16.1-169.2-16.1c65,114.3,206.1,165.8,331.4,115.4C1792.5,474.5,1858.8,319.6,1804.4,183L1804.4,183z"/>
<path class="st4" d="M578,957c27.7,0,51-7.1,74.5-22.5c29.1-19,45.4-47.5,54.9-81.1"/>
<ellipse transform="matrix(0.5749 -0.8182 0.8182 0.5749 -177.6737 995.5824)" class="st2" cx="869.3" cy="668.8" rx="32.3" ry="32.3"/>
<g>
	<path class="st3" d="M879.5,551.2c29.1,0,58.2,11.5,79.9,33.8c42.4,44.2,41.5,111.2-3,156.9L788.2,925.6
		c-11.5,10.3-24.6,18.9-39.6,18.9c-3.3,0-6.7-0.5-10.3-1.4c-25-6.6-39.8-32.2-33.2-57.2l0.1-0.3l66.1-247.9
		c4.7-20.4,15.1-39.9,31.4-55.5C824.2,561.5,851.8,551.2,879.5,551.2 M879.5,539.2c-31.9,0-62.1,12.2-85.2,34.4
		c-17.2,16.5-29.2,37.7-34.7,61.2l-66.1,247.7v0.1v0.1l-0.1,0.3c-4,15.2-1.9,31,6,44.6s20.6,23.2,35.7,27.2h0.1h0.1
		c4.8,1.1,9.1,1.7,13.1,1.7c20.7,0,37.1-12.5,47.6-22l0.4-0.4l0.4-0.4L965,750.2c23.5-24.2,36.8-55.1,37.4-87
		c0.6-32-11.7-62.7-34.5-86.4l0,0l0,0c-11.8-12.1-25.7-21.5-41.2-28C911.8,542.4,895.9,539.2,879.5,539.2L879.5,539.2z"/>
</g>
<path class="st5" d="M768.7,996.3c12-21.3,28-40.7,42.5-56.2c36-38.5,71.7-77.3,108-115.4c60.9-63.8,121.6-135.6,207.2-165.4
	c138.6-48.2,296.1,10.4,367.9,138.8c66.8,119.5,41.2,261.1-47.9,360.5"/>
<path class="st3" d="M587,920c2-13-7.3,24.4-11.9,35.9c-6.2,15.6-13.1,30.8-19.6,47.7c-86.9,226.1-164.3,455.3-244.5,683.8
	c-8.3,23.5-17,47-24.7,70.7c-2.2,6.8-7.1,19.3-4.6,24.3c10.8-19.4,112.4-201.4,222-391.1c155.1-268.5,222.9-384.2,284.4-451.7
	c0,0-69.1,45.4-93.1-41.6C654.5,946,577.9,978.4,587,920z M985.4,1445.9c1.3-1.5,2.6-3,3.9-4.4
	C988,1442.9,986.7,1444.4,985.4,1445.9z"/>
</svg>
