<?xml version="1.0" encoding="utf-8"?>
<!-- Generator: Adobe Illustrator 21.0.0, SVG Export Plug-In . SVG Version: 6.00 Build 0)  -->
<svg version="1.1" id="Layer_1" xmlns="http://www.w3.org/2000/svg" xmlns:xlink="http://www.w3.org/1999/xlink" x="0px" y="0px"
	 viewBox="0 0 1207.5 511.3" style="enable-background:new 0 0 1207.5 511.3;" xml:space="preserve">
<style type="text/css">
	.st0{fill:#161616;}
</style>
<path class="st0" d="M316.4,382.6V178.2l0,0v-25.8h64.2v-31.3h64.5V89.7h62.5V58.3h127.5v31.4h64.5v31.5h62.8v31.3h64v26l0,0V303
	c4.7,0.2,1.2,0.3,5.8,0.5V180.4c0.1-0.6,8.2-1.2,8.2-1.9v-26c0-7.7-6.3-14-14-14h-50v-17.3c0-7.7-6.3-14-14-14h-48.8V89.7
	c0-7.7-6.3-14-14-14h-50.5V58.3c0-7.7-6.3-14-14-14H507.7c-7.7,0-14,6.3-14,14v17.4h-48.5c-7.7,0-14,6.3-14,14v17.5h-50.5
	c-7.7,0-14,6.3-14,14v17.3h-50.2c-7.7,0-14,6.3-14,14v24.6c0,0.4,7.2,0.8,7.2,1.2v205C314.3,383,311.7,382.8,316.4,382.6z"/>
<path class="st0" d="M199.6,392.2v-207h102.9v197.7c4.6-0.2,9.4-0.4,14.1-0.7V176.9h-131v216.6C190.2,393.1,194.8,392.6,199.6,392.2
	z"/>
<path class="st0" d="M840.4,304.2v-119h83.4v115.5c4.7,0.3,9.4,0.5,14,0.8V176.9H826.6v126.8C831.3,303.8,835.8,304,840.4,304.2z"/>
<path class="st0" d="M507.2,204.4v91H360.6v-91H507.2 M521.6,192.4h-8H354.1h-8v8v99v8h8h159.5h8v-8v-99V192.4L521.6,192.4z"/>
<path class="st0" d="M808,192.4H648.5h-8v8v99v8h8H808h8v-8v-99v-8H808z M800.8,294.9h-145v-90h145V294.9z"/>
<path class="st0" d="M279.8,213.8v63.4h-44.6v-63.4L279.8,213.8 M290.9,201.4h-8H232h-8v8v72.3v8h8h50.9h8v-8v-72.3V201.4
	L290.9,201.4z"/>
<path class="st0" d="M316.4,382.6v-75.1h614.4l98.1,84.3c7.7,0.7,15.2,1.3,22.6,2c-0.8-1.3-1.8-2.5-3-3.6l-108.6-93.3
	c-2.5-2.2-5.8-3.4-9.1-3.4H316.4c-7.7,0-14,6.3-14,14v75.8C307,383,311.7,382.8,316.4,382.6z"/>
<path class="st0" d="M1013.3,370.2v-16.1h7.2v-15.3h-7.2v-7.6h7.2h15.9h7.2v7.6h-7.2v15.3h7.2V393c2.7,0.2,5.4,0.5,8,0.7v-39.6v-7.3
	v-8v-7.6v-8h-8h-7.2h-15.9h-7.2h-8v8v7.6v8v7.3v15.4C1007.9,369.8,1010.6,370,1013.3,370.2z"/>
<path class="st0" d="M882.9,272.6v7.6h-7.2v15.3h7.2v4.2h-30.3v-4.2h7.2v-15.3h-7.2v-7.6h7.2h15.9H882.9 M890.9,264.6h-8h-7.2h-15.9
	h-7.2h-8v8v13.5h7.3v9.3l-7.3,4.2v8h8h30.3h8v-8l-6.3-4.2v-9.3h6.3v-13.5L890.9,264.6L890.9,264.6z"/>
<path class="st0" d="M0,415.8c116.2-15.5,386.6-25.6,601.8-25.6s477.1,10.1,593.3,25.6h8.5c-2.7-0.7-5.5-1.3-8.5-2
	c-32.8-7.4-79.6-14-139-19.7c-121.4-11.6-282.7-17.9-454.3-17.9s-332.9,6.4-454.3,17.9c-59.4,5.7-106.2,12.3-139,19.7
	C5.5,414.5,2.7,415.2,0,415.8L0,415.8z"/>
<path class="st0" d="M992.9,172L671.6,9.5c-1-0.5-2.1-0.8-3.2-0.8H475c-1.1,0-2.2,0.3-3.2,0.8L150.5,172c-2.9,1.5-4.4,4.7-3.6,7.9
	s3.6,5.4,6.8,5.4h156.9l-11.5-8.4H167.3L473.3,25l193.2-0.1l309.1,151.5h-138l-1,8.9h153.2c3.2,0,6.1-2.2,6.8-5.4
	S995.8,173.5,992.9,172z"/>
<path class="st0" d="M73.8,432.4c-2,0-3.7-1.4-4-3.4c-0.3-2.2,1.2-4.2,3.4-4.5c14-2,30-3.9,51.8-6.2c2.2-0.2,4.2,1.4,4.4,3.5
	c0.2,2.2-1.4,4.2-3.5,4.4c-21.7,2.3-37.6,4.2-51.6,6.2C74.2,432.4,74,432.4,73.8,432.4z"/>
<path class="st0" d="M170.5,421.9c-2.1,0-3.8-1.6-4-3.6c-0.2-2.2,1.4-4.1,3.6-4.3c9.8-0.9,20.4-1.8,31.6-2.6
	c1.1-0.1,2.3-0.2,3.5-0.3c1.1-0.1,2.3-0.1,3.4-0.2c2.2-0.2,4.1,1.4,4.3,3.6c0.2,2.2-1.4,4.1-3.6,4.3c-1.2,0.1-2.4,0.2-3.6,0.3
	c-1.1,0.1-2.3,0.1-3.4,0.2c-11.2,0.8-21.7,1.7-31.5,2.6C170.7,421.9,170.6,421.9,170.5,421.9z"/>
<path class="st0" d="M224.6,417.8c-2.2,0-4-1.8-4-4s1.8-4,4-4c0.2,0,0.3,0,0.5,0c0.4,0,0.8-0.1,1.2-0.1c2.2,0,4,1.8,4,4s-1.8,4-4,4
	c-0.2,0-0.3,0-0.5,0C225.4,417.8,225,417.8,224.6,417.8z"/>
<path class="st0" d="M257.8,415.5c-2.1,0-3.9-1.6-4-3.8c-0.1-2.2,1.5-4.1,3.7-4.2c20.9-1.3,44.3-2.5,71.6-3.7
	c2.2-0.1,4.1,1.6,4.2,3.8c0.1,2.2-1.6,4.1-3.8,4.2c-27.2,1.2-50.6,2.4-71.4,3.7C258,415.5,257.9,415.5,257.8,415.5z"/>
<path class="st0" d="M387.7,409.6c-2.1,0-3.9-1.7-4-3.8c-0.1-2.2,1.6-4.1,3.8-4.1c8.9-0.3,16.2-0.6,24-0.8c2.2-0.1,4,1.7,4.1,3.9
	c0.1,2.2-1.7,4-3.9,4.1c-7.7,0.2-15,0.5-23.8,0.8C387.8,409.6,387.7,409.6,387.7,409.6z"/>
<path class="st0" d="M474.7,407.2c-2.2,0-4-1.7-4-3.9c0-2.2,1.7-4,3.9-4.1c22.6-0.4,45.8-0.7,69-0.9c0,0,0,0,0,0c2.2,0,4,1.8,4,4
	c0,2.2-1.8,4-4,4C520.5,406.5,497.3,406.8,474.7,407.2C474.7,407.2,474.7,407.2,474.7,407.2z"/>
<path class="st0" d="M652.6,406.2C652.6,406.2,652.6,406.2,652.6,406.2c-15.7-0.1-33.4-0.2-50.8-0.2c-2.2,0-4-1.8-4-4s1.8-4,4-4
	c17.4,0,35.1,0.1,50.8,0.2c2.2,0,4,1.8,4,4C656.6,404.4,654.8,406.2,652.6,406.2z"/>
<path class="st0" d="M677,406.5C677,406.5,676.9,406.5,677,406.5c-4.9-0.1-6.1-0.1-11.1-0.1c-2.2,0-4-1.8-4-4s1.8-4,4-4
	c5,0,6.2,0,11.2,0.1c2.2,0,4,1.9,3.9,4.1C681,404.8,679.2,406.5,677,406.5z"/>
<path class="st0" d="M812.3,409.4c0,0-0.1,0-0.1,0c-20.6-0.6-39.3-1.2-58.5-1.6c-2.2,0-4-1.9-3.9-4.1c0-2.2,1.8-3.9,4-3.9
	c0,0,0.1,0,0.1,0c19.2,0.4,37.9,1,58.5,1.6c2.2,0.1,3.9,1.9,3.9,4.1C816.2,407.7,814.5,409.4,812.3,409.4z"/>
<path class="st0" d="M883.8,412.3c-0.1,0-0.1,0-0.2,0l-5.9-0.3c-2.2-0.1-3.9-2-3.8-4.2c0.1-2.2,2-3.9,4.2-3.8l5.9,0.3
	c2.2,0.1,3.9,2,3.8,4.2C887.7,410.6,885.9,412.3,883.8,412.3z"/>
<path class="st0" d="M984.6,418.1c-0.1,0-0.2,0-0.3,0c-20-1.5-41.4-2.7-59.8-3.8c-2.9-0.1-5.9-0.3-8.9-0.5c-3.2-0.2-6.3-0.4-9.5-0.5
	c-3.2-0.2-6.5-0.3-9.8-0.5l-1.5-0.1c-2.2-0.1-3.9-2-3.8-4.2c0.1-2.2,2-3.9,4.2-3.8l1.5,0.1c3.3,0.2,6.6,0.3,9.8,0.5
	c3.2,0.2,6.4,0.3,9.6,0.5c3,0.2,6,0.3,8.9,0.5c18.5,1.1,39.9,2.3,60,3.8c2.2,0.2,3.9,2.1,3.7,4.3
	C988.4,416.5,986.7,418.1,984.6,418.1z"/>
<path class="st0" d="M1118.1,430.8c-0.2,0-0.3,0-0.5,0c-8.9-1.1-18.7-2.3-30.1-3.6c-9.7-1-20.5-2.2-31.9-3.3
	c-2.2-0.2-3.8-2.2-3.6-4.4s2.2-3.8,4.4-3.6c11.5,1.1,22.3,2.3,32,3.3c11.4,1.3,21.3,2.5,30.2,3.6c2.2,0.3,3.7,2.3,3.5,4.5
	C1121.8,429.3,1120.1,430.8,1118.1,430.8z"/>
<path class="st0" d="M1195.1,443.6c-0.3,0-0.6,0-0.9-0.1c-9.8-2.1-19.9-4.1-30.2-5.9c-2.2-0.4-3.6-2.4-3.3-4.6
	c0.4-2.2,2.4-3.7,4.6-3.3c10.4,1.8,20.7,3.8,30.6,5.9c2.2,0.5,3.5,2.6,3,4.8C1198.6,442.3,1196.9,443.6,1195.1,443.6z"/>
<path class="st0" d="M8.5,467.1c-1.8,0-3.5-1.3-3.9-3.1c-0.5-2.2,0.9-4.3,3-4.8c14.3-3.2,31.6-6.3,52.6-9.5c13.4-2,28-3.9,43.4-5.7
	c2.2-0.2,4.2,1.3,4.4,3.5s-1.3,4.2-3.5,4.4c-15.3,1.8-29.9,3.7-43.2,5.7c-20.8,3.1-37.9,6.2-52,9.3C9.1,467.1,8.8,467.1,8.5,467.1z"
	/>
<path class="st0" d="M251.1,439.4c-2.1,0-3.9-1.6-4-3.8c-0.1-2.2,1.5-4.1,3.7-4.2c28.9-1.8,60-3.4,95.1-4.9c2.2-0.1,4.1,1.6,4.2,3.8
	c0.1,2.2-1.6,4.1-3.8,4.2c-35.1,1.5-66.1,3.1-94.9,4.9C251.3,439.4,251.2,439.4,251.1,439.4z"/>
<path class="st0" d="M359.2,434c-2.1,0-3.9-1.7-4-3.9c-0.1-2.2,1.6-4.1,3.8-4.1c4-0.1,8-0.3,12.1-0.4l4.4-0.2
	c2.2-0.1,4.1,1.6,4.1,3.9c0.1,2.2-1.6,4.1-3.9,4.1l-4.4,0.2c-4.1,0.1-8.1,0.3-12.1,0.4C359.3,434,359.2,434,359.2,434z"/>
<path class="st0" d="M498,430.3c-2.2,0-4-1.8-4-4s1.8-4,4-4c1.2,0,2.4,0,3.7,0c1.3,0,2.6-0.1,3.8-0.1c2.2,0,4,1.8,4,4s-1.8,4-4,4
	c-1.2,0-2.4,0-3.7,0C500.6,430.3,499.3,430.3,498,430.3z"/>
<path class="st0" d="M518,430c-2.2,0-4-1.8-4-4c0-2.2,1.7-4,4-4c17.6-0.2,35.7-0.3,53.2-0.4l0.2,0c0,0,0,0,0,0c2.2,0,4,1.8,4,4
	c0,2.2-1.8,4-4,4l-0.2,0C553.7,429.7,535.7,429.8,518,430C518,430,518,430,518,430z"/>
<path class="st0" d="M612.6,429.5h-10.8c-2.2,0-4-1.8-4-4s1.8-4,4-4h10.8c2.2,0,4,1.8,4,4S614.8,429.5,612.6,429.5z"/>
<path class="st0" d="M677,430c-1.8,0-3.6,0-5.4,0c-1.8,0-3.6,0-5.5,0c-6.9,0-12.9-0.1-18.9-0.1c-6.3-0.1-12.6-0.1-20-0.2
	c-2.2,0-4-1.8-4-4s1.9-4,4-4c7.4,0.1,13.7,0.1,20,0.2c6,0,12,0.1,18.9,0.1c0,0,0,0,0,0c1.8,0,3.7,0,5.5,0.1c1.8,0,3.6,0,5.3,0
	c2.2,0,4,1.8,4,4S679.2,430,677,430z"/>
<path class="st0" d="M890.9,436c-0.1,0-0.1,0-0.2,0c-35.6-1.8-75-3.2-120.6-4.4c-2.2-0.1-4-1.9-3.9-4.1c0.1-2.2,1.9-3.9,4.1-3.9
	c45.7,1.2,85.2,2.6,120.8,4.4c2.2,0.1,3.9,2,3.8,4.2C894.8,434.3,893,436,890.9,436z"/>
<path class="st0" d="M1056,447.4c-0.1,0-0.3,0-0.4,0c-20-1.9-39.9-3.6-59.2-5c-2.2-0.2-3.9-2.1-3.7-4.3c0.2-2.2,2.1-3.9,4.3-3.7
	c19.4,1.4,39.4,3.1,59.4,5c2.2,0.2,3.8,2.2,3.6,4.4C1059.8,445.9,1058,447.4,1056,447.4z"/>
<path class="st0" d="M1203.5,469.1c-0.3,0-0.7,0-1-0.1c-1.8-0.5-3.7-0.9-5.7-1.3c-0.9-0.2-1.8-0.4-2.7-0.6
	c-14.1-3.2-31.1-6.2-51.8-9.3c-2.2-0.3-3.7-2.4-3.4-4.5c0.3-2.2,2.4-3.7,4.5-3.4c20.9,3.1,38.1,6.2,52.4,9.5
	c0.9,0.2,1.8,0.4,2.7,0.6c2,0.5,4,0.9,5.9,1.4c2.1,0.6,3.4,2.7,2.9,4.9C1206.9,467.9,1205.3,469.1,1203.5,469.1z"/>
<path class="st0" d="M15.5,489.1c-1.8,0-3.5-1.3-3.9-3.2c-0.5-2.2,0.9-4.3,3.1-4.7c7.5-1.6,14.6-3,21.5-4.1
	c9.6-1.7,20.8-3.5,36.2-5.6c2.2-0.3,4.2,1.2,4.5,3.4c0.3,2.2-1.2,4.2-3.4,4.5c-15.3,2.1-26.4,3.8-35.9,5.6
	c-6.8,1.2-13.7,2.5-21.2,4.1C16,489.1,15.8,489.1,15.5,489.1z"/>
<path class="st0" d="M113.2,474.4c-2,0-3.8-1.5-4-3.6c-0.2-2.2,1.4-4.2,3.6-4.4c5.6-0.6,11.4-1.2,17.3-1.8c3.1-0.3,6.3-0.7,9.6-1
	c2.4-0.2,4.9-0.5,7.4-0.7c2.2-0.2,4.2,1.4,4.4,3.6s-1.4,4.2-3.6,4.4c-2.5,0.3-5,0.5-7.5,0.7c-3.2,0.3-6.4,0.6-9.5,1
	c-5.9,0.6-11.7,1.2-17.3,1.8C113.5,474.4,113.3,474.4,113.2,474.4z"/>
<path class="st0" d="M170.5,468.9c-2.1,0-3.8-1.6-4-3.7c-0.2-2.2,1.4-4.1,3.6-4.3c9.4-0.8,20.4-1.8,31.5-2.6
	c2.2-0.1,4.1,1.5,4.3,3.7s-1.5,4.1-3.7,4.3c-11.1,0.8-22.1,1.8-31.5,2.6C170.7,468.9,170.6,468.9,170.5,468.9z"/>
<path class="st0" d="M245.5,463.2c-2.1,0-3.9-1.6-4-3.8c-0.1-2.2,1.5-4.1,3.8-4.2c16.7-1,30.8-1.8,45.4-2.6c2.2-0.1,4.1,1.6,4.2,3.8
	c0.1,2.2-1.6,4.1-3.8,4.2c-14.6,0.8-28.7,1.6-45.4,2.6C245.7,463.2,245.6,463.2,245.5,463.2z"/>
<path class="st0" d="M433.9,455.1c-2.2,0-3.9-1.7-4-3.9c0-2.2,1.7-4,3.9-4.1l27.1-0.6c2.2-0.1,4,1.7,4.1,3.9s-1.7,4-3.9,4.1
	L433.9,455.1C434,455.1,433.9,455.1,433.9,455.1z"/>
<path class="st0" d="M482.9,454c-2.2,0-4-1.7-4-3.9c0-2.2,1.7-4,3.9-4.1l18.8-0.3c5.9,0,11.5-0.1,17.4-0.2l0.5,0
	c2.8-0.1,5.5-0.1,8.3-0.1c2.8,0,5.5,0,8.3-0.1c0,0,0,0,0.1,0c2.2,0,4,1.7,4,3.9c0,2.2-1.7,4-3.9,4.1c-2.8,0.1-5.6,0.1-8.4,0.1
	c-2.7,0-5.5,0-8.2,0.1l-0.5,0c-6,0.1-11.6,0.2-17.5,0.2L482.9,454C482.9,454,482.9,454,482.9,454z"/>
<path class="st0" d="M571.5,453.1c-2.2,0-4-1.8-4-4c0-2.2,1.8-4,4-4c10-0.1,20.4-0.1,30.3-0.1c2.2,0,4,1.8,4,4s-1.8,4-4,4
	C591.8,453,581.5,453,571.5,453.1C571.5,453.1,571.5,453.1,571.5,453.1z"/>
<path class="st0" d="M690.1,453.6C690.1,453.6,690.1,453.6,690.1,453.6l-22.8-0.3c-3.5,0-7.1-0.1-10.6-0.1c-3.6,0-7.2-0.1-10.7-0.1
	c-2.2,0-4-1.8-3.9-4.1s1.8-4,4.1-3.9c3.6,0.1,7.1,0.1,10.7,0.1c3.5,0,7.1,0.1,10.6,0.1l22.7,0.3c2.2,0,4,1.8,3.9,4.1
	C694.1,451.8,692.3,453.6,690.1,453.6z"/>
<path class="st0" d="M720.7,454.1c-1,0-2,0-3-0.1c-0.9,0-1.8,0-2.6,0c-2.2,0-4-1.8-4-4s1.8-4,4-4c0.9,0,1.9,0,2.8,0
	c0.9,0,1.8,0,2.8,0c2.2,0,4,1.8,4,4S722.9,454.1,720.7,454.1z"/>
<path class="st0" d="M830.6,457c0,0-0.1,0-0.1,0c-19.5-0.7-38.9-1.3-60.5-1.9c-2.2-0.1-3.9-1.9-3.9-4.1c0.1-2.2,1.9-3.9,4.1-3.9
	c21.6,0.6,41,1.2,60.5,1.9c2.2,0.1,3.9,1.9,3.9,4.1C834.5,455.3,832.7,457,830.6,457z"/>
<path class="st0" d="M1019.2,467.7c-0.1,0-0.2,0-0.3,0c-41.1-3.3-84.2-6.1-128.2-8.2c-2.2-0.1-3.9-2-3.8-4.2c0.1-2.2,2-3.9,4.2-3.8
	c44.1,2.1,87.3,4.9,128.4,8.2c2.2,0.2,3.8,2.1,3.7,4.3C1023,466.1,1021.3,467.7,1019.2,467.7z"/>
<path class="st0" d="M1163.4,484.4c-0.2,0-0.4,0-0.7-0.1c-19.5-3.3-41.6-6.3-65.9-9.2c-11.5-1.3-24.2-2.6-41.2-4.3
	c-2.2-0.2-3.8-2.2-3.6-4.4c0.2-2.2,2.2-3.8,4.4-3.6c17.1,1.6,29.8,3,41.4,4.3c24.4,2.8,46.7,5.9,66.3,9.2c2.2,0.4,3.6,2.4,3.3,4.6
	C1167,483,1165.3,484.4,1163.4,484.4z"/>
<path class="st0" d="M43.8,511.2c-1.9,0-3.6-1.4-3.9-3.4c-0.3-2.2,1.1-4.2,3.3-4.6c11.3-1.8,24.8-3.9,39.4-5.7
	c2.2-0.3,4.2,1.3,4.5,3.5s-1.3,4.2-3.5,4.5c-14.5,1.8-28,3.9-39.2,5.7C44.2,511.2,44,511.2,43.8,511.2z"/>
<path class="st0" d="M113.4,501.9c-2,0-3.7-1.5-4-3.6c-0.2-2.2,1.3-4.2,3.5-4.4c9.8-1.1,21.5-2.3,34.2-3.5c2.2-0.2,4.1,1.4,4.4,3.6
	c0.2,2.2-1.4,4.1-3.6,4.4c-12.6,1.2-24.3,2.4-34,3.5C113.7,501.9,113.5,501.9,113.4,501.9z"/>
<path class="st0" d="M215.3,492.8c-2.1,0-3.8-1.6-4-3.7c-0.2-2.2,1.5-4.1,3.7-4.3c7.1-0.6,14-1,21.4-1.5c3-0.2,5.9-0.4,8.9-0.6
	c2.2-0.1,4.1,1.5,4.3,3.7c0.1,2.2-1.5,4.1-3.7,4.3c-3,0.2-6,0.4-8.9,0.6c-7.4,0.5-14.3,0.9-21.3,1.5
	C215.5,492.8,215.4,492.8,215.3,492.8z"/>
<path class="st0" d="M273.8,489c-2.1,0-3.9-1.7-4-3.8c-0.1-2.2,1.6-4.1,3.8-4.2c9.5-0.5,19.1-1,28.9-1.5c2.2-0.1,4.1,1.6,4.2,3.8
	c0.1,2.2-1.6,4.1-3.8,4.2c-9.8,0.5-19.4,1-28.9,1.5C273.9,489,273.9,489,273.8,489z"/>
<path class="st0" d="M359.2,485c-2.1,0-3.9-1.7-4-3.8c-0.1-2.2,1.6-4.1,3.8-4.2c15.2-0.6,31.1-1.1,45.1-1.6c2.2,0,4.1,1.7,4.1,3.9
	c0.1,2.2-1.7,4.1-3.9,4.1c-14,0.5-29.9,1-45.1,1.6C359.3,485,359.3,485,359.2,485z"/>
<path class="st0" d="M433.8,482.6c-2.2,0-3.9-1.7-4-3.9c-0.1-2.2,1.7-4,3.9-4.1c17.7-0.5,36-0.9,54.4-1.2c0,0,0,0,0.1,0
	c2.2,0,4,1.7,4,3.9c0,2.2-1.7,4-3.9,4.1c-18.4,0.3-36.7,0.7-54.4,1.2C433.9,482.6,433.8,482.6,433.8,482.6z"/>
<path class="st0" d="M521.6,481c-2.2,0-4-1.8-4-4c0-2.2,1.7-4,4-4l28.1-0.3c3.7,0,7.3,0,10.9,0c3.7,0,7.4-0.1,11.1-0.1
	c2.2,0,4,1.8,4,4s-1.8,4-4,4c-3.7,0-7.4,0-11,0.1c-3.7,0-7.3,0-11,0L521.6,481C521.6,481,521.6,481,521.6,481z"/>
<path class="st0" d="M639.4,480.6C639.4,480.6,639.4,480.6,639.4,480.6c-12.5-0.1-25.3-0.1-37.6-0.1c-2.2,0-4-1.8-4-4s1.8-4,4-4
	c12.3,0,25.1,0,37.6,0.1c2.2,0,4,1.8,4,4C643.4,478.8,641.6,480.6,639.4,480.6z"/>
<path class="st0" d="M734.1,481.8C734.1,481.8,734,481.8,734.1,481.8c-17.8-0.3-32.5-0.6-48-0.8c-2.2,0-4-1.8-4-4s1.8-4,4-4
	c15.5,0.2,30.2,0.5,47.9,0.8c2.2,0,4,1.9,3.9,4.1C738.1,480.1,736.3,481.8,734.1,481.8z"/>
<path class="st0" d="M840.4,484.8c-0.1,0-0.1,0-0.2,0c-12.2-0.5-26-1-40.1-1.4c-3.9-0.1-7.8-0.2-11.7-0.3c-4.1-0.1-8.3-0.3-12.5-0.4
	c-2.2-0.1-4-1.9-3.9-4.1c0.1-2.2,1.9-4,4.1-3.9c4.2,0.1,8.4,0.2,12.6,0.4c3.9,0.1,7.8,0.2,11.6,0.3c14.1,0.4,27.9,0.9,40.2,1.4
	c2.2,0.1,3.9,1.9,3.8,4.1C844.3,483.1,842.5,484.8,840.4,484.8z"/>
<path class="st0" d="M903.5,487.6c-0.1,0-0.1,0-0.2,0c-12.7-0.6-24.1-1.2-35.9-1.7c-2.2-0.1-3.9-2-3.8-4.2c0.1-2.2,1.9-3.9,4.2-3.8
	c11.8,0.5,23.2,1.1,35.9,1.7c2.2,0.1,3.9,2,3.8,4.2C907.4,485.9,905.6,487.6,903.5,487.6z"/>
<path class="st0" d="M956.1,490.6c-0.1,0-0.2,0-0.3,0c-4-0.3-8-0.5-12-0.7c-3.5-0.2-7.1-0.4-10.7-0.7c-2.2-0.1-3.9-2-3.7-4.2
	c0.1-2.2,2-3.9,4.2-3.7c3.6,0.2,7.2,0.4,10.7,0.7c4,0.2,8,0.5,12,0.7c2.2,0.1,3.9,2.1,3.7,4.3C960,489,958.2,490.6,956.1,490.6z"/>
<path class="st0" d="M1056,498.4c-0.1,0-0.3,0-0.4,0c-14.5-1.4-29.8-2.7-44.1-3.8c-2.2-0.2-3.8-2.1-3.7-4.3c0.2-2.2,2.1-3.9,4.3-3.7
	c14.4,1.1,29.7,2.4,44.3,3.8c2.2,0.2,3.8,2.2,3.6,4.4C1059.8,496.9,1058,498.4,1056,498.4z"/>
<g>
	<path class="st0" d="M677.6,2.5c-3.4-1.7-7.2-2.5-11-2.5H473.3c-3.9,0-7.7,0.9-11.1,2.6l-306,151.9c-10.4,5.2-15.9,16.8-13.2,28.1
		s12.7,19.3,24.3,19.3h7.2v182.8l0.4,7.7c5.4-0.3,10.5-0.4,15.2-0.4c3.4,0,6.5,0.1,9.4,0.2V176.9h-32.2L473.3,25h193.2l309.1,151.4
		h-51.8v117.1l1.1,14.1l5.9-0.1c4.4,3.8,29.7,25.9,18,15.8V201.4h26.8c11.6,0,21.7-8,24.4-19.4c2.6-11.3-2.9-23-13.4-28.1"/>
</g>
</svg>
