<?xml version="1.0" encoding="utf-8"?>
<!-- Generator: Adobe Illustrator 21.0.0, SVG Export Plug-In . SVG Version: 6.00 Build 0)  -->
<svg version="1.1" id="Layer_1" xmlns="http://www.w3.org/2000/svg" xmlns:xlink="http://www.w3.org/1999/xlink" x="0px" y="0px"
	 viewBox="0 0 649 649" style="enable-background:new 0 0 649 649;" xml:space="preserve">
<style type="text/css">
	.st0{fill:#4C4C4C;}
	.st1{fill:none;stroke:#4C4C4C;stroke-width:37;stroke-miterlimit:10;}
</style>
<g>
	<path class="st0" d="M485.7,436.7c-12.7,0-23-10.3-23-23v-38.5H163.3c-12.7,0-23-10.3-23-23s10.3-23,23-23h322.5
		c12.7,0,23,10.3,23,23v61.5C508.7,426.4,498.4,436.7,485.7,436.7z"/>
	<path class="st0" d="M203.3,260.3h282.5c12.7,0,23,10.3,23,23s-10.3,23-23,23H203.3"/>
	<path class="st0" d="M147.3,212.3L147.3,212.3c21.5,0,38.9,17.4,38.9,38.9V416c0,7.3-6,13.3-13.3,13.3h-19.4
		c-7.3,0-13.3-6-13.3-13.3V219.3C140.3,215.4,143.4,212.3,147.3,212.3z"/>
</g>
<circle class="st1" cx="324.5" cy="324.5" r="306"/>
</svg>
