<?xml version="1.0" encoding="utf-8"?>
<!-- Generator: Adobe Illustrator 21.0.0, SVG Export Plug-In . SVG Version: 6.00 Build 0)  -->
<svg version="1.1" id="Layer_1" xmlns="http://www.w3.org/2000/svg" xmlns:xlink="http://www.w3.org/1999/xlink" x="0px" y="0px"
	 viewBox="0 0 1207.5 511.3" style="enable-background:new 0 0 1207.5 511.3;" xml:space="preserve">
<style type="text/css">
	.st0{fill:#161616;}
</style>
<path class="st0" d="M462.7,139.3c-5.9-29.9-32.3-52.5-63.9-52.5c-5.8,0-11.4,0.7-16.8,2.2c-16.9-14-37.7-22-59.7-23
	c-6.1-10.6-14.5-19.7-24.7-26.7c-13.7-9.4-29.7-14.4-46.4-14.4c-19.5,0-38.4,6.9-53.2,19.6c-12.8,10.9-22,25.5-26.2,41.6
	c-8.3,6.2-15.7,13.6-21.8,22c-33.5,1.5-60.4,29.3-60.4,63.2c0,2.1,0.1,4.1,0.3,6.1c-3.9,2.1-7.5,4.8-10.7,8
	c-7.8,8.1-12.2,18.7-12.2,29.9c0,23.7,19.2,42.9,42.9,42.9c7.4,0,14.6-1.9,21-5.5c7.1,3.6,15,5.5,23.1,5.5s16-1.9,23.2-5.5
	c16.3,10.5,35.3,16.1,54.8,16.1c11.8,0,23.4-2.1,34.4-6c5.7-5.5,11.9-11.2,18.1-16.4c-3.5-1.5-6.9-3.2-10.2-5.1
	c-12.5,7.2-26.9,11.3-42.4,11.3c-20.7,0-39.6-7.4-54.4-19.6c-6.3,5.6-14.5,9-23.6,9c-9.2,0-17.6-3.5-23.9-9.3
	c-4.9,5.7-12.1,9.3-20.2,9.3c-14.7,0-26.7-11.9-26.7-26.7c0-14.5,11.5-26.2,25.9-26.7c-2.2-5.4-3.4-11.3-3.4-17.4
	c0-26,21.1-47,47-47c1.9,0,3.8,0.1,5.7,0.4c6.8-11.7,16.4-21.5,27.7-28.8c5.3-31,32.4-54.7,64.9-54.7c27.6,0,51.3,17,61.1,41.1
	c1.7-0.1,3.5-0.2,5.2-0.2c23.8,0,45.3,9.7,60.8,25.5c6.3-2.9,13.2-4.5,20.6-4.5c27,0,48.9,21.9,48.9,48.9c0,0.5,0,0.9,0,1.4l0,0
	c19.5,0,35.4,15.8,35.4,35.4S467.3,224,447.8,224c-3.8,0-7.4-0.6-10.8-1.7c-8.5,11.9-21.4,20.4-36.4,23.2c4.9,3.9,9.9,8.2,14.8,12.6
	c10.5-3.9,20-10.1,27.8-18.2c1.5,0.1,3,0.2,4.5,0.2c28.5,0,51.6-23.1,51.6-51.6C499.4,165.4,483.9,145.7,462.7,139.3z"/>
<path class="st0" d="M228.1,455.2c-11.2,0-22.1-2.3-32.3-6.7c-2-0.9-3-3.2-2.1-5.3c0.9-2,3.2-3,5.3-2.1c9.2,4,19,6.1,29.1,6.1
	c18.2,0,35.5-6.7,48.7-18.8c5.5-5,13.9-5,19.4,0c0,0,0.1,0,0.1,0.1c1.8,1.7,3.8,3.4,6,5c1.8,1.3,2.2,3.8,0.9,5.6
	c-1.3,1.8-3.8,2.2-5.6,0.9c-2.4-1.8-4.7-3.7-6.8-5.6c-2.5-2.2-6.2-2.2-8.6,0C267.5,447.8,248.3,455.2,228.1,455.2z"/>
<path class="st0" d="M325.3,449.7c-2.2,0-4-1.8-4-4s1.8-4,4-4c16.1,0,31.4-5.2,44.1-15.2c1.4-1.2,3-2.5,4.4-3.8c5.6-5,13.9-5,19.4,0
	c1.4,1.3,3,2.6,4.5,3.8c4.3,3.3,8.6,5.9,13.2,8.1c5.4,2.6,10.9,4.4,16.4,5.5c2.2,0.4,3.6,2.5,3.2,4.7s-2.5,3.6-4.7,3.2
	c-6.2-1.2-12.3-3.3-18.3-6.1c-5.1-2.5-9.9-5.4-14.6-9c0,0-0.1,0-0.1-0.1c-1.6-1.3-3.3-2.7-4.9-4.2c-2.4-2.2-6.1-2.2-8.6,0
	c-1.6,1.5-3.2,2.8-4.9,4.1C360.1,443.9,343.2,449.7,325.3,449.7z"/>
<path class="st0" d="M459,447.9c-1.8,0-3.4-1.2-3.9-3c-0.6-2.1,0.7-4.3,2.9-4.9c8.3-2.1,16.1-5.7,23.3-10.7c2.6-1.7,5-3.7,7.5-6
	c5.5-5,13.9-5,19.4,0c1.5,1.4,3,2.6,4.5,3.9c6.6,5.1,13.9,9,21.6,11.5c2.1,0.7,3.3,2.9,2.6,5c-0.7,2.1-2.9,3.3-5,2.6
	c-8.6-2.8-16.8-7.1-24.1-12.9c-1.7-1.4-3.4-2.7-5-4.2c-2.4-2.2-6.1-2.2-8.6,0c-2.7,2.5-5.5,4.7-8.3,6.6c-8,5.5-16.7,9.5-25.8,11.9
	C459.7,447.9,459.3,447.9,459,447.9z"/>
<path class="st0" d="M678.2,445.8c-4.7,0-9.3-0.5-13.6-1.6c-4.7-1.1-9.3-2.8-14.1-5.2c-5.8-3-11.1-6.9-15.8-11.7
	c-1.6-1.6-3.8-1.6-5.4,0c-3.9,3.9-8.3,7.3-12.8,9.9c-9.2,5.5-19.8,8.4-30.7,8.4c-2.2,0-4-1.8-4-4s1.8-4,4-4c9.4,0,18.6-2.5,26.6-7.3
	c4-2.3,7.8-5.3,11.2-8.7c4.7-4.7,11.9-4.7,16.7,0c4.2,4.2,8.8,7.6,13.9,10.2c4.2,2.1,8.3,3.6,12.4,4.6c3.8,0.9,7.8,1.4,11.8,1.4
	c6.5,0,12.6-1.1,18.4-3.3c2.1-0.8,4.4,0.2,5.2,2.3c0.8,2.1-0.2,4.4-2.3,5.2C692.8,444.5,685.7,445.8,678.2,445.8z"/>
<path class="st0" d="M769.7,446.2c-0.3,0-0.7,0-1-0.1c-9.4-2.4-18.1-6.4-25.9-11.9c-2.8-1.9-5.5-4.1-8.3-6.6c-2.4-2.2-6.2-2.2-8.6,0
	c-2.1,1.9-4.3,3.7-6.6,5.4c-1.8,1.3-4.3,0.9-5.6-0.9c-1.3-1.8-0.9-4.3,0.9-5.6c2.1-1.5,4.1-3.1,6-4.8c5.5-5,13.8-5,19.4,0
	c2.5,2.3,4.9,4.2,7.5,6c7,4.9,14.9,8.5,23.4,10.7c2.1,0.6,3.4,2.7,2.9,4.9C773.1,445,771.5,446.2,769.7,446.2z"/>
<path class="st0" d="M878.7,446.3c-0.2,0-0.4,0-0.7-0.1c-4.4-0.7-8.9-1.9-13-3.4c-6.7-2.4-13.1-5.7-19-9.8c-2.8-1.9-5.6-4.1-8.3-6.6
	c-2.4-2.2-6.1-2.2-8.6,0l0,0c0,0-0.1,0.1-0.1,0.1c-2.5,2.3-5.4,4.6-9,7.1c-5.7,3.8-11.6,6.8-17.5,8.9c-2.3,0.9-4.9,1.6-7.7,2.3
	c-2.1,0.5-4.3-0.8-4.8-3c-0.5-2.1,0.8-4.3,3-4.8c2.5-0.6,4.7-1.3,6.8-2.1c5.3-1.9,10.6-4.6,15.7-8c3.3-2.3,5.8-4.3,8.1-6.4l0.1-0.1
	c0,0,0.1-0.1,0.1-0.1c5.5-5,13.8-5,19.4,0c2.5,2.3,4.9,4.2,7.5,6c5.4,3.8,11,6.7,17.2,8.8c3.7,1.3,7.7,2.4,11.6,3
	c2.2,0.4,3.7,2.4,3.3,4.6C882.3,444.9,880.6,446.3,878.7,446.3z"/>
<path class="st0" d="M986.8,449.1c-12.2,0-23.8-2.6-34.4-7.8c-7.3-3.6-13.9-8-19.6-13.3c-2.4-2.2-6-2.3-8.4-0.1
	c-1.4,1.3-2.8,2.5-4.4,3.8c-4.2,3.4-8.8,6.3-13.7,8.8c-4.9,2.5-10.4,4.6-16.3,6.1c-2.1,0.6-4.3-0.7-4.9-2.9
	c-0.6-2.1,0.7-4.3,2.9-4.9c5.3-1.4,10.2-3.2,14.7-5.5c4.4-2.2,8.6-4.9,12.3-7.9c1.4-1.1,2.8-2.3,4-3.4c5.4-4.9,13.8-4.9,19.2,0.1
	c5.1,4.7,11,8.7,17.6,11.9c9.6,4.6,20,7,31,7c2.2,0,4,1.8,4,4S989,449.1,986.8,449.1z"/>
<path class="st0" d="M1182.1,415.3c-25.7,0-50.9-9-70.8-25.3c-5.5-4.5-13.5-4.5-19,0c-19.9,16.3-45.1,25.3-70.8,25.3
	s-50.9-9-70.8-25.3c-5.5-4.5-13.5-4.5-19,0c-19.9,16.3-45.1,25.3-70.8,25.3s-50.9-9-70.8-25.3c-5.5-4.5-13.5-4.5-19,0
	c-19.9,16.3-45.1,25.3-70.8,25.3s-50.9-9-70.8-25.3c-5.5-4.5-13.5-4.5-19,0c-19.9,16.3-45.1,25.3-70.8,25.3s-50.9-9-70.8-25.3
	c-5.5-4.5-13.5-4.5-19,0c-19.9,16.3-45.1,25.3-70.8,25.3c-25.7,0-50.9-9-70.8-25.3c-5.5-4.5-13.5-4.5-19,0
	c-19.9,16.3-45.1,25.3-70.8,25.3c-25.7,0-50.9-9-70.8-25.3c-5.5-4.5-13.5-4.5-19,0c-19.9,16.3-45.1,25.3-70.8,25.3c-3.9,0-7-3.1-7-7
	s3.1-7,7-7c22.5,0,44.5-7.9,62-22.1c10.7-8.7,26.1-8.7,36.8,0c17.5,14.3,39.5,22.1,62,22.1c22.5,0,44.5-7.9,62-22.1
	c10.7-8.7,26.1-8.7,36.8,0c17.5,14.3,39.5,22.1,62,22.1c22.5,0,44.5-7.9,62-22.1c10.7-8.7,26.1-8.7,36.8,0
	c17.5,14.3,39.5,22.1,62,22.1s44.5-7.9,62-22.1c10.7-8.7,26.1-8.7,36.8,0c17.5,14.3,39.5,22.1,62,22.1s44.5-7.9,62-22.1
	c10.7-8.7,26.1-8.7,36.8,0c17.5,14.3,39.5,22.1,62,22.1s44.5-7.9,62-22.1c10.7-8.7,26.1-8.7,36.8,0c17.5,14.3,39.5,22.1,62,22.1
	s44.5-7.9,62-22.1c10.7-8.7,26.1-8.7,36.8,0c17.5,14.3,39.5,22.1,62,22.1c3.9,0,7,3.1,7,7S1186,415.3,1182.1,415.3z"/>
<path class="st0" d="M125.8,497.4c-2.2,0-4-1.8-4-4s1.8-4,4-4c11.2,0,22.3-1.9,33-5.6c8.6-2.9,16.7-7.1,24.3-12.4
	c1.8-1.3,4.3-0.8,5.6,1c1.3,1.8,0.8,4.3-1,5.6c-8.2,5.7-17,10.3-26.3,13.4C149.9,495.4,137.9,497.4,125.8,497.4z"/>
<path class="st0" d="M290.9,500.3c-14.9,0-29.4-3-43.2-8.9c-13.3-5.7-25.2-14.1-35.5-24.9c-0.5-0.5-0.9-0.6-1.3-0.6
	c-0.5,0-1.1,0.2-1.4,0.6c-1.5,1.6-4.1,1.6-5.7,0.1c-1.6-1.5-1.6-4.1-0.1-5.7c1.9-2,4.5-3.1,7.2-3.1c0,0,0.1,0,0.1,0
	c2.7,0,5.2,1.1,7,3.1c9.5,10,20.5,17.7,32.8,23c12.8,5.5,26.2,8.3,40,8.3c2.2,0,4,1.8,4,4S293.1,500.3,290.9,500.3z"/>
<path class="st0" d="M418.9,495.7c-15,0-29.5-3-43.2-8.9c-7.7-3.4-15-7.7-21.7-12.7c-2.7-2-5.3-4.2-8-6.7c-1.6-1.4-3.2-3-5.1-5
	c-1-1-2.9-1.1-3.9-0.1c-1.5,1.6-3.2,3.2-5.3,5.1c-7.8,7-16.6,12.9-26.1,17.5c-2,1-4.4,0.1-5.3-1.9c-1-2-0.1-4.4,1.9-5.3
	c8.9-4.2,17-9.7,24.2-16.3c2-1.8,3.5-3.2,4.9-4.7c2-2.1,4.8-3.3,7.7-3.3c0,0,0,0,0,0c3,0,5.7,1.2,7.8,3.3c1.7,1.9,3.2,3.3,4.7,4.6
	c2.6,2.4,5,4.4,7.4,6.2c6.2,4.7,13,8.6,20.1,11.8c12.7,5.5,26.1,8.3,40,8.3c2.2,0,4,1.8,4,4S421.1,495.7,418.9,495.7z"/>
<path class="st0" d="M499.4,493.4c-0.4,0-0.8-0.1-1.2-0.2c-7.4-2.3-14.5-5.3-21.1-9c-5.2-2.9-10.2-6.3-14.7-9.9
	c-0.6-0.5-1.3-0.7-2.1-0.6c-0.8,0.1-1.5,0.5-1.9,1.1c-3.4,4.5-6.7,8.3-10.2,11.8c-1.6,1.6-4.1,1.6-5.7,0c-1.6-1.6-1.6-4.1,0-5.7
	c3.2-3.2,6.3-6.8,9.4-11c1.8-2.4,4.4-3.9,7.3-4.3c2.9-0.4,5.8,0.4,8.1,2.3c4.2,3.3,8.8,6.4,13.7,9.1c6.1,3.4,12.7,6.2,19.5,8.4
	c2.1,0.7,3.3,2.9,2.6,5C502.7,492.3,501.1,493.4,499.4,493.4z"/>
<path class="st0" d="M681.1,492.4c-11.4,0-22.5-1.7-33-5.1c-10.3-3.3-20-8.1-28.9-14.3c-5.9-4.1-11.3-8.7-16.1-13.7
	c-1.1-1.1-2.9-1.1-4,0c-4,4.1-7.8,7.5-11.7,10.4c-5.9,4.6-12.5,8.7-19.8,12.2c-14.6,7-30.3,10.5-46.6,10.5c-2.2,0-4-1.8-4-4
	s1.8-4,4-4c15.2,0,29.7-3.3,43.2-9.7c6.7-3.2,12.9-7.1,18.4-11.3c3.6-2.7,7.1-5.8,10.8-9.6c2.1-2.1,4.8-3.3,7.8-3.3s5.7,1.2,7.8,3.3
	c4.4,4.6,9.4,8.9,14.9,12.7c8.2,5.8,17.2,10.2,26.7,13.3c9.8,3.1,20.1,4.7,30.6,4.7c2.2,0,4,1.8,4,4S683.3,492.4,681.1,492.4z"/>
<path class="st0" d="M36,450.8c-2.2,0-4-1.8-4-4s1.8-4,4-4c13.3,0,26.2-2.9,38.4-8.7c5.8-2.8,11.3-6.1,16.4-10.1
	c3.3-2.6,6.5-5.4,9.6-8.6c1.9-2,4.5-3.1,7.3-3.1s5.4,1.1,7.3,3.1c4,4.1,8.5,7.9,13.3,11.3c7.2,5,15.3,9,23.8,11.8
	c8.6,2.8,17.7,4.2,27.2,4.2c2.2,0,4,1.8,4,4s-1.8,4-4,4c-10.3,0-20.3-1.5-29.6-4.6c-9.3-3-18.1-7.3-25.9-12.8
	c-5.2-3.6-10.1-7.8-14.5-12.3c-0.6-0.6-1.2-0.7-1.5-0.7s-1,0.1-1.5,0.6c-3.4,3.5-6.8,6.5-10.4,9.4c-5.5,4.3-11.5,7.9-17.8,11
	C64.6,447.6,50.5,450.8,36,450.8z"/>
<path class="st0" d="M999.6,449.2c-2.2,0-4-1.8-4-4s1.8-4,4-4c13.3,0,26.2-2.9,38.4-8.7c5.8-2.8,11.3-6.1,16.4-10.1
	c3.3-2.6,6.5-5.4,9.6-8.6c1.9-2,4.5-3.1,7.3-3.1c0,0,0,0,0,0c2.8,0,5.4,1.1,7.3,3.1c4,4.1,8.5,7.9,13.3,11.3c7.2,5,15.3,9,23.8,11.8
	c8.6,2.8,17.7,4.2,27.2,4.2c2.2,0,4,1.8,4,4s-1.8,4-4,4c-10.3,0-20.3-1.5-29.6-4.6c-9.3-3-18.1-7.3-25.9-12.8
	c-5.2-3.6-10.1-7.8-14.5-12.3c-0.6-0.6-1.2-0.7-1.5-0.7l0,0c-0.3,0-1,0.1-1.5,0.6c-3.4,3.5-6.8,6.6-10.4,9.4
	c-5.5,4.3-11.5,7.9-17.8,11C1028.2,446,1014.1,449.2,999.6,449.2z"/>
<path class="st0" d="M832.8,492.4c-19.8,0-39.1-5.4-56-15.6c-4.8-2.9-9.6-6.3-14.5-10.5c-2.5-2.1-4.9-4.4-7.5-7.1
	c-1.1-1.1-3-1.1-4.1,0l-0.2,0.2c-5.6,5.8-11.9,11-18.8,15.5c-6.6,4.3-13.8,8-21.5,10.8c-2.1,0.8-4.4-0.3-5.1-2.4
	c-0.8-2.1,0.3-4.4,2.4-5.1c7.1-2.6,13.8-6,19.9-10c6.4-4.2,12.3-9,17.5-14.4l0.2-0.2c2-2.1,4.8-3.3,7.8-3.3s5.8,1.2,7.8,3.3
	c2.4,2.5,4.6,4.6,6.9,6.5c4.6,3.9,9,7,13.5,9.7c15.6,9.4,33.5,14.4,51.8,14.4c2.2,0,4,1.8,4,4S835,492.4,832.8,492.4z"/>
<path class="st0" d="M978,498.4c-8.5,0-16.9-0.9-24.7-2.8c-11.4-2.7-22.1-7.1-31.9-13.1c-7.8-4.7-15-10.5-21.4-17.2
	c-1.1-1.1-2.9-1.1-4,0c-9,9.4-19.5,17-31.5,22.6c-2,0.9-4.4,0.1-5.3-1.9c-0.9-2-0.1-4.4,1.9-5.3c11-5.2,20.8-12.3,29.1-20.9
	c2.1-2.2,4.8-3.3,7.8-3.3s5.7,1.2,7.8,3.3c5.9,6.2,12.6,11.6,19.8,16c9.1,5.6,19,9.6,29.5,12.1c7.3,1.7,15,2.6,22.9,2.6
	c2.2,0,4,1.8,4,4S980.2,498.4,978,498.4z"/>
<path class="st0" d="M1077,499.4c-0.4,0-0.8-0.1-1.1-0.2c-11-3.3-21.3-8.3-30.7-14.9c-5.9-4.1-11.3-8.7-16.1-13.7
	c-1.1-1.1-2.9-1.1-4,0c-9,9.4-19.5,17-31.5,22.6c-2,0.9-4.4,0.1-5.3-1.9c-0.9-2-0.1-4.4,1.9-5.3c11-5.2,20.8-12.3,29.1-20.9
	c2.1-2.2,4.8-3.3,7.8-3.3s5.7,1.2,7.8,3.3c4.4,4.6,9.4,8.9,14.9,12.7c8.7,6.1,18.3,10.7,28.5,13.8c2.1,0.6,3.3,2.9,2.7,5
	C1080.3,498.3,1078.7,499.4,1077,499.4z"/>
<g>
	<g>
		<path class="st0" d="M835,74.3c22,0,39.9,17.9,39.9,39.9S857,154.1,835,154.1s-39.9-17.9-39.9-39.9S813,74.3,835,74.3 M835,60.3
			c-29.7,0-53.9,24.2-53.9,53.9s24.2,53.9,53.9,53.9s54-24.1,54-53.9S864.8,60.3,835,60.3L835,60.3z"/>
	</g>
</g>
<path class="st0" d="M735.3,161.9c-1.5,0-3-0.9-3.7-2.4c-6.3-14.2-9.4-29.5-9.4-45.3c0-30.2,11.7-58.5,33.1-79.8
	c1.6-1.6,4.1-1.6,5.7,0c1.6,1.6,1.6,4.1,0,5.7c-19.8,19.8-30.7,46.2-30.7,74.2c0,14.7,2.9,28.9,8.8,42.1c0.9,2,0,4.4-2,5.3
	C736.4,161.8,735.8,161.9,735.3,161.9z"/>
<path class="st0" d="M835,227.1c-14.2,0-28.1-2.6-41.4-7.8c-2.1-0.8-3.1-3.1-2.3-5.2c0.8-2.1,3.1-3.1,5.2-2.3
	c12.3,4.8,25.2,7.2,38.4,7.2c2.2,0,4,1.8,4,4S837.2,227.1,835,227.1z"/>
<path class="st0" d="M925.3,179.2c-0.8,0-1.5-0.2-2.2-0.7c-1.8-1.2-2.3-3.7-1.1-5.6c11.7-17.4,17.9-37.7,17.9-58.7
	c0-20.9-6.2-41.2-17.9-58.7c-19.6-28.9-52.1-46.2-87-46.2c-2.2,0-4-1.8-4-4s1.8-4,4-4c37.6,0,72.6,18.6,93.6,49.8
	c12.6,18.8,19.3,40.6,19.3,63.1s-6.7,44.4-19.3,63.1C927.8,178.6,926.6,179.2,925.3,179.2z"/>
<path class="st0" d="M835.1,198.5c-5.4,0-11.1-0.6-16.9-1.7c-5.5-1.1-11.2-2.9-16.9-5.4c-2-0.9-3-3.2-2.1-5.3s3.2-3,5.3-2.1
	c5.2,2.2,10.4,3.9,15.3,4.8c10.7,2.1,20.9,2,30.1,0.1c12.9-2.5,25-8.4,35-17c5.2-4.5,9.7-9.6,13.5-15.2c4.3-6.3,7.5-13.2,9.7-20.3
	c0.6-2.1,2.9-3.3,5-2.7c2.1,0.6,3.3,2.9,2.7,5c-2.4,7.9-6,15.5-10.7,22.5c-4.2,6.2-9.2,11.8-14.9,16.8c-11,9.5-24.4,16-38.7,18.8
	C846.2,198,840.7,198.5,835.1,198.5z"/>
<path class="st0" d="M904.7,78.3c-1.4,0-2.7-0.7-3.5-2c-5.7-10-13.9-18.8-23.6-25.4c-8-5.4-16.8-9.2-26.1-11.2
	c-5.6-1.2-11.2-1.8-16.5-1.8c-2.2,0-4-1.8-4-4s1.8-4,4-4c5.9,0,12.1,0.7,18.2,2c10.3,2.3,20,6.4,28.9,12.4c10.7,7.2,19.7,16.9,26,28
	c1.1,1.9,0.4,4.4-1.5,5.5C906.1,78.1,905.4,78.3,904.7,78.3z"/>
<path class="st0" d="M800.5,45.7c-1.5,0-2.9-0.8-3.6-2.3c-1-2-0.1-4.4,1.9-5.3c5.2-2.5,11.1-4.6,17.4-6.1c2.1-0.5,4.3,0.8,4.8,2.9
	c0.5,2.1-0.8,4.3-3,4.8c-5.8,1.4-11.1,3.2-15.8,5.5C801.7,45.6,801.1,45.7,800.5,45.7z"/>
<path class="st0" d="M754.8,118.2c-2.2,0-4-1.8-4-4c0-10,1.8-19.8,5.2-29.3c1.5-4.2,3.5-8.5,5.9-12.6c1.1-1.9,3.6-2.6,5.5-1.5
	c1.9,1.1,2.6,3.6,1.5,5.5c-2.2,3.7-3.9,7.5-5.3,11.3c-3.2,8.6-4.8,17.5-4.8,26.6C758.8,116.4,757,118.2,754.8,118.2z"/>
<g>
	<path class="st0" d="M391.1,342.4c-1.5,0-3.1-0.6-4.2-1.8c-2.3-2.3-2.3-6.1,0-8.5L488,231.1c2.3-2.3,6.1-2.3,8.5,0
		c2.3,2.3,2.3,6.1,0,8.5L395.3,340.6C394.2,341.8,392.6,342.4,391.1,342.4z"/>
</g>
<g>
	<path class="st0" d="M823.9,329c-1.5,0-3.1-0.6-4.2-1.8L718.6,226.1c-2.3-2.3-2.3-6.1,0-8.5c2.3-2.3,6.1-2.3,8.5,0l101.1,101.1
		c2.3,2.3,2.3,6.1,0,8.5C827,328.4,825.4,329,823.9,329z"/>
</g>
<g>
	<path class="st0" d="M160,377.1l123.5-112.9c16.6-15.2,37.9-23.1,59.4-23.1c15.3,0,30.7,4,44.6,12.2l56.4,33.2l118.8-111.9
		c13.9-13.8,32-20.8,50.2-20.8s36.3,6.9,50.2,20.8L785.9,291l0,0c16.6-29,46.7-44.9,77.5-44.9c17.9,0,36.1,5.4,51.9,16.7
		l152.5,109.4l17.8,9.7c2.1-6.8,20.3-3,14.4-7.2L925,249.3c-18.1-13-39.4-19.9-61.7-19.9c-18.3,0-36.4,4.7-52.3,13.7
		c-10.4,5.9-19.8,13.5-27.6,22.5l-108.7-103c-16.6-16.5-38.5-25.5-61.9-25.5c-23.3,0-45.3,9.1-61.9,25.5l-109.3,103l-45.5-26.8
		c-16.1-9.5-34.5-14.5-53.1-14.5c-26.3,0-51.4,9.7-70.7,27.5L136.3,376c-2,1.8,19.8-6,18.9-3.6C163.6,371,149.9,379.2,160,377.1z"/>
	<path class="st0" d="M1087.1,385.6l-20.7-11.3L913.8,264.8c-14.8-10.6-32.3-16.2-50.4-16.2c-31.1,0-59.9,16.7-75.3,43.6l-1.6,2.8
		L661.4,176.4c-13-13-30.2-20.1-48.5-20.1c-18.2,0-35.4,7.1-48.4,20.1L444.2,289.6l-58-34.2c-13.1-7.8-28.1-11.9-43.3-11.9
		c-21.4,0-41.9,8-57.7,22.4l-124,113.4l-0.7,0.1c-2.4,0.5-5.1,0.9-6.4-1.1c-0.8-1.2-0.6-2.3-0.1-3.3l-2.6,0.4l0.2-0.7
		c-2.4,0.6-5.6,1.5-7.6,2c-7.5,2.1-8.8,2.5-10,0.5c-0.5-0.9-0.5-2.3,0.6-3.3l136-124.2c19.7-18.2,45.4-28.2,72.4-28.2
		c19.1,0,37.9,5.1,54.4,14.8l43.9,25.8l107.9-101.7c17.1-16.9,39.7-26.2,63.6-26.2c24,0,46.6,9.3,63.7,26.2L783.2,262
		c7.6-8.3,16.5-15.4,26.5-21.1c16.2-9.2,34.7-14,53.5-14c22.8,0,44.6,7,63.2,20.4l175,125.4c0.7,0.5,2.7,1.9,2.1,4.1
		c-0.6,2.3-3.1,2.6-6.6,2.9c-2.9,0.3-8.4,0.8-9,2.9L1087.1,385.6z M1069.1,370.1l15.6,8.5c2.6-2.8,7.5-3.4,11.1-3.8L923.5,251.3
		c-17.7-12.7-38.5-19.4-60.2-19.4c-17.9,0-35.6,4.6-51.1,13.4c-10.3,5.9-19.4,13.2-26.9,22l-1.7,2L673,164.4
		c-16.1-16-37.5-24.8-60.2-24.8c-22.6,0-44,8.8-60.1,24.8L441.9,268.7L394.8,241c-15.7-9.3-33.6-14.2-51.8-14.2
		c-25.7,0-50.2,9.5-69,26.8l-129,117.9c7-1.9,9.7-2.5,11.2-1.7c1.4-0.1,3,0.1,4,1.5c0.4,0.6,0.5,1.3,0.5,1.9l121.2-110.8
		c16.7-15.3,38.4-23.8,61.1-23.8c16.1,0,32,4.3,45.9,12.5l54.8,32.2L561,172.8c13.9-13.8,32.4-21.5,51.9-21.5
		c19.6,0,38.1,7.6,52,21.5L785.4,287c16.6-26.9,46.3-43.4,78-43.4c19.2,0,37.7,5.9,53.4,17.2L1069.1,370.1z M138,377.8L138,377.8
		C138,377.8,138,377.8,138,377.8z"/>
</g>
</svg>
