<?xml version="1.0" encoding="utf-8"?>
<!-- Generator: Adobe Illustrator 21.0.0, SVG Export Plug-In . SVG Version: 6.00 Build 0)  -->
<svg version="1.1" id="Layer_1" xmlns="http://www.w3.org/2000/svg" xmlns:xlink="http://www.w3.org/1999/xlink" x="0px" y="0px"
	 viewBox="0 0 649 649" style="enable-background:new 0 0 649 649;" xml:space="preserve">
<style type="text/css">
	.st0{fill:none;stroke:#4C4C4C;stroke-width:37;stroke-miterlimit:10;}
	
		.st1{fill-rule:evenodd;clip-rule:evenodd;fill:none;stroke:#4C4C4C;stroke-width:46;stroke-linecap:round;stroke-linejoin:round;stroke-miterlimit:10;}
	
		.st2{fill-rule:evenodd;clip-rule:evenodd;fill:none;stroke:#4C4C4C;stroke-width:35;stroke-linecap:round;stroke-linejoin:round;stroke-miterlimit:10;}
	
		.st3{fill-rule:evenodd;clip-rule:evenodd;fill:none;stroke:#4C4C4C;stroke-width:32;stroke-linecap:round;stroke-linejoin:round;stroke-miterlimit:10;}
	.st4{fill-rule:evenodd;clip-rule:evenodd;fill:#4C4C4C;}
</style>
<circle class="st0" cx="324.5" cy="324.5" r="306"/>
<line class="st1" x1="465.7" y1="306.5" x2="155.8" y2="306.5"/>
<path class="st2" d="M458.2,317.2V361c0,36.5-29.9,66.4-66.4,66.4H227.6c-36.5,0-66.4-29.9-66.4-66.4v-43.7"/>
<path class="st3" d="M440,470.3c-21.4,0-38.9-17.5-38.9-38.9"/>
<path class="st3" d="M176.5,470.3c21.4,0,38.9-17.5,38.9-38.9"/>
<path class="st1" d="M419.6,361"/>
<path class="st3" d="M381,165.9c0-21.2,17.4-38.6,38.6-38.6h0c21.2,0,38.6,17.4,38.6,38.6v156.5"/>
<path class="st4" d="M335.9,204.3c0-23.7,19.2-42.8,42.8-42.8s42.8,19.2,42.8,42.8"/>
</svg>
