<?xml version="1.0" encoding="utf-8"?>
<!-- Generator: Adobe Illustrator 21.0.0, SVG Export Plug-In . SVG Version: 6.00 Build 0)  -->
<svg version="1.1" id="Layer_1" xmlns="http://www.w3.org/2000/svg" xmlns:xlink="http://www.w3.org/1999/xlink" x="0px" y="0px"
	 viewBox="0 0 649 649" style="enable-background:new 0 0 649 649;" xml:space="preserve">
<style type="text/css">
	.st0{fill:none;stroke:#4C4C4C;stroke-width:37;stroke-miterlimit:10;}
	.st1{fill:#4C4C4C;}
	.st2{fill:none;stroke:#4C4C4C;stroke-width:32;stroke-linecap:round;stroke-linejoin:round;stroke-miterlimit:10;}
</style>
<circle class="st0" cx="324.5" cy="324.5" r="306"/>
<g>
	<path class="st1" d="M465.1,185v255.9H157.7V244L465.1,185 M465.1,150c-2.2,0-4.4,0.2-6.6,0.6l-307.4,59
		c-16.5,3.2-28.4,17.6-28.4,34.4v196.9c0,19.3,15.7,35,35,35h307.4c19.3,0,35-15.7,35-35V185c0-10.4-4.7-20.3-12.7-27
		C481.1,152.8,473.2,150,465.1,150L465.1,150z"/>
</g>
<rect x="187.3" y="306.3" class="st2" width="96" height="67.1"/>
<rect x="339.4" y="306.3" class="st2" width="96" height="141.2"/>
</svg>
