<?xml version="1.0" encoding="utf-8"?>
<!-- Generator: Adobe Illustrator 21.0.0, SVG Export Plug-In . SVG Version: 6.00 Build 0)  -->
<svg version="1.1" id="Layer_1" xmlns="http://www.w3.org/2000/svg" xmlns:xlink="http://www.w3.org/1999/xlink" x="0px" y="0px"
	 viewBox="0 0 1207.5 511.3" style="enable-background:new 0 0 1207.5 511.3;" xml:space="preserve">
<style type="text/css">
	.st0{fill:#161616;}
	.st1{fill:none;stroke:#161616;stroke-width:14;stroke-linecap:round;stroke-linejoin:round;stroke-miterlimit:10;}
	.st2{fill:none;stroke:#161616;stroke-width:7;stroke-linecap:round;stroke-linejoin:round;stroke-miterlimit:10;}
	.st3{fill:none;stroke:#161616;stroke-width:9;stroke-linecap:round;stroke-linejoin:round;stroke-miterlimit:10;}
</style>
<g>
	<path class="st0" d="M942.1,302.3c35.5,0,64.2,10.2,64.2,22.8c0,12.6-28.7,22.8-64.2,22.8c-22.6,0-42.5-4.2-54-10.4
		c-6.5-3.6-10.2-7.8-10.2-12.4C877.9,312.5,906.6,302.3,942.1,302.3 M942.1,288.3c-18.7,0-36.5,2.7-50.1,7.5
		c-7.5,2.7-13.6,5.9-18.1,9.7c-8.3,7-10,14.5-10,19.6c0,6.8,3,16.7,17.5,24.6c14.1,7.7,36.2,12.2,60.7,12.2
		c18.7,0,36.5-2.7,50.1-7.5c7.5-2.7,13.6-5.9,18.1-9.7c8.3-7,10-14.5,10-19.6s-1.7-12.6-10-19.6c-4.5-3.8-10.6-7.1-18.1-9.7
		C978.6,290.9,960.8,288.3,942.1,288.3L942.1,288.3z"/>
</g>
<path class="st1" d="M204.3,57.6v400.7c0,16.9,12.4,31.3,29.1,33.8l44.3,6.6c38.2,5.7,77.2,0.1,112.2-16.3c0,0,36.2-20.8,54.8-22.2
	c16.3-1.2,24.9,1.4,31.8,5.5c14.4,8.7,29.5,16.1,46.3,16.1l2,0c20.6,0,45.5-15.8,58.4-23.6c14.5-8.8,30.2-1.3,39.9,2l63.6,28.5
	c33.5,12.3,69.6,15.2,104.6,8.5l15.5-3c19.7-3.8,33.9-21,33.9-41.1V63.4"/>
<g>
	<g>
		<path class="st0" d="M488.2,25.8c5.6,0,11.2,0.7,16.8,2.2v404.1c0,0-27.2-21.2-58.9-21.2c-41.4,0-100.6,46.3-137.5,46.3
			c-39.3,0-84.2-12.6-84.2-12.6V65.9c0,0,68.8,12.6,107.4,12.6C385.9,78.5,438.4,25.8,488.2,25.8 M488.2,11.8
			c-27.7,0-54.9,13.7-81.2,27c-25,12.6-50.9,25.7-75.2,25.7c-36.9,0-104.2-12.3-104.8-12.4c-0.8-0.2-1.7-0.2-2.5-0.2
			c-3.2,0-6.4,1.1-9,3.2c-3.2,2.7-5,6.6-5,10.8v378.7c0,6.3,4.2,11.8,10.2,13.5c1.9,0.5,47.2,13.1,87.9,13.1
			c21,0,45.2-11.4,70.8-23.5c23.8-11.2,48.4-22.8,66.6-22.8c26.3,0,50.1,18.1,50.3,18.2c2.5,1.9,5.5,2.9,8.6,2.9
			c2.1,0,4.2-0.5,6.2-1.4c4.8-2.3,7.8-7.2,7.8-12.6V28c0-6.3-4.2-11.9-10.4-13.5C502.1,12.7,495.2,11.8,488.2,11.8L488.2,11.8z"/>
	</g>
</g>
<path class="st2" d="M447.7,87.9C412.1,98.1,375,129,337,129c-32.5,0-90.4-10.6-90.4-10.6"/>
<path class="st2" d="M482.8,130.8c-5.8-1.6-11.6-2-17.4-1.7c-9.7,0.5-19.6,3.3-29.6,7.2c-6.3,2.5-12.6,5.4-18.9,8.5
	c-7.7,3.8-15.5,7.8-23.4,11.7c-8,3.9-16.1,7.6-24.2,10.5c-10.7,3.9-21.5,6.4-32.4,6.4c-32.5,0-90.4-10.6-90.4-10.6"/>
<path class="st2" d="M337,217.7c-32.5,0-90.4-10.6-90.4-10.6"/>
<path class="st2" d="M430.8,182.7c-6.9,3-13.9,6.4-21,9.9c-9.1,4.6-18.2,9.3-27.4,13.4"/>
<path class="st2" d="M482.8,175.2c-8.3-2.2-16.7-2.3-25.1-0.9"/>
<path class="st2" d="M271.7,255.6c-16.9-2.5-25.1-4.2-25.1-4.2"/>
<path class="st2" d="M354.6,260c-5.9,1.3-11.8,2-17.7,2c-7.3,0-16-0.5-25-1.4c-9-0.8-14-1.4-22.7-2.6"/>
<path class="st2" d="M418.1,232.9c-13.6,6.3-21.7,11.2-35.7,17.4"/>
<path class="st2" d="M482.8,219.5c-8-2.2-16.2-2.3-24.4-1c-8.2,1.3-16.5,4-24.9,7.4"/>
<path class="st2" d="M258.9,297.9c-5.6-0.8,1.8,0.3-2.7-0.4c-9.7-1.6-9.7-1.7-9.7-1.7"/>
<path class="st2" d="M315.8,305.2c-2.8-0.3-5.7-0.5-8.6-0.8c-11.3-1.2-22.8-2.6-31.7-3.9"/>
<path class="st2" d="M377.6,296.8c-2.5,1.1-5.1,2.1-7.6,3c-10.9,4-21.9,6.6-33,6.6"/>
<path class="st2" d="M445.1,266.1c-4.5,1.4-9,3.1-13.5,5c-5.8,2.5-11.6,5.3-17.5,8.2"/>
<path class="st2" d="M770.6,123.4c17.6-2.6,31.1-5,31.1-5"/>
<path class="st2" d="M669.3,118.8c13.8,5.9,27.8,10.1,42,10.1c11.9,0,27.3-1.4,41.9-3.2"/>
<path class="st2" d="M565.4,86.4c10-2.7,20-2.2,30.3,0.2c10.7,2.5,21.6,7.1,32.6,12.4"/>
<path class="st2" d="M761.2,169c22-3,40.5-6.4,40.5-6.4"/>
<path class="st2" d="M711.3,173.3c7.1,0,15.3-0.5,23.9-1.3"/>
<path class="st2" d="M565.4,130.8c5.8-1.6,11.6-2,17.4-1.7c17.2,0.9,34.7,8.9,52.6,17.8c10,5,20.1,10.3,30.3,14.8"/>
<path class="st2" d="M787.9,209.4c8.4-1.4,13.8-2.4,13.8-2.4"/>
<path class="st2" d="M711.3,217.7c11.9,0,27.2-1.4,41.8-3.2"/>
<path class="st2" d="M635.3,191.1c10.1,5,20.3,10.4,30.5,14.9"/>
<path class="st2" d="M603.7,177.5c2.6,0.8,5.2,1.8,7.9,2.8"/>
<path class="st2" d="M565.4,175.2c6-1.6,12.1-2.1,18.3-1.7"/>
<path class="st2" d="M761.1,257.8c10.2-1.4,19.6-2.8,26.8-4c8.4-1.4,13.8-2.4,13.8-2.4"/>
<path class="st2" d="M650.5,243.1c4.5,2.3,9.1,4.5,13.7,6.5c15.5,7,31.2,12.4,47,12.4c9,0,19.9-0.8,31-2"/>
<path class="st2" d="M618.4,227.5c5.6,2.4,11.2,5.1,16.8,8"/>
<path class="st2" d="M565.4,219.5c10.3-2.8,20.8-2.2,31.4,0.4"/>
<path class="st2" d="M749.1,303.6c11.6-1.4,22.9-3,32.1-4.5c12.1-1.9,20.5-3.4,20.5-3.4"/>
<path class="st2" d="M657.5,290.9c8.6,4.1,17.3,7.9,26,10.7c9.2,2.9,18.4,4.8,27.7,4.8"/>
<path class="st2" d="M565.4,263.9c13.8-3.7,27.9-1.4,42.3,3.7c10.2,3.6,20.6,8.7,31.1,14"/>
<path class="st2" d="M675.1,344.8c12,4.6,24,7.8,36.2,7.8c9,0,19.9-0.8,31-2"/>
<path class="st2" d="M603.7,312.4c6.2,2,12.5,4.6,18.8,7.4c9.3,4.2,18.6,9.1,28,13.8"/>
<path class="st2" d="M565.4,310c7.2-1.9,14.5-2.2,21.8-1.3"/>
<path class="st2" d="M565.4,356.2c46.1-12.4,95.1,42.5,145.9,42.5c32.5,0,90.4-10.6,90.4-10.6"/>
<path class="st2" d="M482.8,379.4c-46.1-12.4-95.1,42.5-145.9,42.5v-71.1c50.8,0,99.8-54.9,145.9-42.5V379.4z"/>
<g>
	<g>
		<path class="st0" d="M560,25.8c49.8,0,102.3,52.7,156.4,52.7c38.6,0,107.4-12.6,107.4-12.6v378.7c0,0-44.9,12.6-84.2,12.6
			c-36.9,0-95-46.3-137.5-46.3c-31.7,0-58.9,21.2-58.9,21.2V28C548.8,26.5,554.4,25.8,560,25.8 M560,11.8
			C560,11.8,560,11.8,560,11.8c-7,0-13.9,0.9-20.4,2.6c-6.1,1.6-10.4,7.2-10.4,13.5v404.1c0,5.3,3,10.2,7.9,12.6
			c2,1,4.1,1.4,6.1,1.4c3.1,0,6.1-1,8.6-3c0.2-0.2,24-18.2,50.3-18.2c18.8,0,43.5,11.7,67.4,23c25.3,12,49.1,23.3,70,23.3
			c40.7,0,86-12.6,87.9-13.1c6-1.7,10.2-7.2,10.2-13.5V65.9c0-4.2-1.8-8.1-5-10.8c-2.5-2.1-5.7-3.2-9-3.2c-0.8,0-1.7,0.1-2.5,0.2
			c-0.7,0.1-68,12.4-104.8,12.4c-24.3,0-50.2-13-75.2-25.7C614.9,25.6,587.7,11.8,560,11.8L560,11.8z"/>
	</g>
</g>
<g>
	<path class="st0" d="M944.5,322.5c-0.9-4.6-1.9-9.5-3-14.7c-6.7-31.5-15.1-70.7-1.6-103.2c9.4-22.7,26.1-38,39.6-48.8
		c19.9-15.9,30.6-28.9,36.9-44.9c9.6-24.4,12.8-72.1,6.1-92.7l9.5-3.1c3.6,11.3,4.9,29.3,3.5,49.5c-1.4,19.2-5,37.9-9.8,50
		c-6.9,17.6-18.9,32.2-39.9,49.1c-12.6,10-28.1,24.2-36.6,44.8c-12.3,29.6-4.3,67.1,2.2,97.3c1.1,5.2,2.2,10.2,3.1,14.9L944.5,322.5
		z"/>
	<path class="st0" d="M1029.3,22c3,3.5,7.2,9.3,11.6,17.6c7.6,14.4,13.2,31,15.9,46.8c2.4,14.6,2.4,28.3-0.2,40.8
		c-2.9,14-8.9,26.5-18,37c-22.5,26-34.7,42.2-42.3,55.8c-6.2,11.2-9.5,21.2-10.6,32.4l-47.8,18.8l-40.3-32c-1.6-5.9-4.2-19-1.3-35.4
		c2.3-12.8,7.5-25.2,15.4-36.8c10.3-14.9,25.2-28.6,44.5-40.7c15.9-10,29.3-23.6,41.1-41.6c9.7-14.9,16.6-30.4,22.2-42.8
		c3-6.8,5.7-12.7,8.2-17.3C1028.3,23.7,1028.9,22.8,1029.3,22 M1031.2,4.9c-1.1-0.5-2.1-0.6-3-0.5c-20.3,3.5-25.8,75.9-79.7,109.7
		c-93.6,58.8-63.4,133.8-63.4,133.8l50.3,39.9l64.4-25.3c-0.3-24.2,8.2-40.8,49.7-88.8C1103.4,111.5,1050.6,12.9,1031.2,4.9
		L1031.2,4.9z"/>
	<path class="st0" d="M931.5,280.2c0,0,7.1,33.5,9,41.6c1.9,8.2,7.4,12.6,10.9,11.9c3.4-0.7,6.5-4.2,4.8-11.7
		c-1.6-7.5-8.2-41-8.2-41l-14.4-6C933.7,275.1,929.8,271.9,931.5,280.2z"/>
	<path class="st0" d="M934.5,225.2c-0.2-0.3-24.8-29.2-41.4-36.1l3.6-8.8c18.7,7.8,44,37.5,45,38.8L934.5,225.2z"/>
	<path class="st0" d="M956.6,179.5c0-0.1-4.3-6.6-10.5-13.9c-8-9.3-15.5-15.6-21.8-18.3l3.6-8.8c7.8,3.3,16.4,10.3,25.5,21
		c6.6,7.8,11,14.5,11.2,14.8L956.6,179.5z"/>
	<path class="st0" d="M992.2,146.2c-0.1-0.2-11.2-19-31.2-30.3l4.7-8.3c22.3,12.6,34.3,33,34.8,33.8L992.2,146.2z"/>
</g>
<ellipse class="st0" cx="941.8" cy="322.5" rx="53.7" ry="14.8"/>
<g>
	<path class="st0" d="M942.1,302.3c35.5,0,64.2,10.2,64.2,22.8c0,4.4-3.4,8.4-9.4,11.9c-9.5,5.8-15.4,14.3-15.4,23.8
		c0,10.1,6.9,19.2,17.6,25l0,0c19.1,11.2,31.3,27.9,31.3,46.6c0,33.7-39.5,61-88.2,61s-88.2-27.3-88.2-61c0-18.9,12.5-35.9,32.1-47
		c10.2-5.8,16.7-14.7,16.7-24.5c0-8.8-5.2-16.8-13.5-22.5c0,0,0-0.1,0-0.2c-0.3-0.2-0.7-0.3-1-0.5c-6.5-3.6-10.2-7.8-10.2-12.4
		C877.9,312.5,906.6,302.3,942.1,302.3 M942.1,288.3c-18.7,0-36.5,2.7-50.1,7.5c-7.5,2.7-13.6,5.9-18.1,9.7c-8.3,7-10,14.5-10,19.6
		c0,6.7,2.9,16.3,16.7,24.2c0.2,0.2,0.4,0.3,0.6,0.4c2.8,1.9,7.5,5.9,7.5,11c0,4.3-3.6,8.9-9.7,12.4c-24.9,14.2-39.2,35.8-39.2,59.2
		c0,10.8,3,21.3,9,31c5.5,8.9,13.2,16.9,22.9,23.6c19,13.1,44,20.3,70.4,20.3s51.4-7.2,70.4-20.3c9.7-6.7,17.4-14.7,22.9-23.6
		c6-9.7,9-20.2,9-31c0-22.9-13.7-44.1-37.6-58.3c-0.3-0.2-0.6-0.4-0.9-0.6c-6.4-3.5-10.3-8.3-10.3-12.7c0-5.7,5.9-10.1,8.6-11.8
		c13.4-7.8,16.2-17.3,16.2-23.9c0-5.1-1.7-12.6-10-19.6c-4.5-3.8-10.6-7.1-18.1-9.7C978.6,290.9,960.8,288.3,942.1,288.3
		L942.1,288.3z"/>
</g>
<path class="st3" d="M960,473.8c8.7-2.3,16.6-5.8,23.1-10.3"/>
<path class="st3" d="M895,396.5c-14.6,8.3-23.8,20.9-23.8,34.9c0,25,29.3,45.3,65.5,45.3"/>
</svg>
