<?xml version="1.0" encoding="utf-8"?>
<!-- Generator: Adobe Illustrator 21.0.0, SVG Export Plug-In . SVG Version: 6.00 Build 0)  -->
<svg version="1.1" id="Layer_7" xmlns="http://www.w3.org/2000/svg" xmlns:xlink="http://www.w3.org/1999/xlink" x="0px" y="0px"
	 viewBox="0 0 2351.4 2021.1" style="enable-background:new 0 0 2351.4 2021.1;" xml:space="preserve">
<style type="text/css">
	.st0{fill:#FF9802;}
	.st1{fill:#FFFFFF;}
	.st2{fill:none;}
	.st3{fill:#3B5E8C;}
	.st4{fill:#FFFFFF;stroke:#FFFFFF;stroke-width:12;stroke-miterlimit:10;}
</style>
<circle class="st0" cx="1181.8" cy="1038.5" r="908.5"/>
<path class="st1" d="M746,1228.7l312.7-352.8c0,0,89.4-126.1,210.7-89.8c121.3,36.1,127.1,168,123.7,191.4
	c-3.5,23.4-12,28.3-112.3,148.7c-100.3,120.3-316.6,334.9-386.6,459.3c-54.4,96.8-67.5,232.2-70.5,287.5
	c81.6,34.9,169,58,260.4,67.5c59.8-115,212.5-391.8,371.7-617.6c205.4-291.2,269.5-449.9,176.7-557.3s-296.1-199.1-296.1-199.1
	s-207.3,23.4-284.9,70C973.7,683.1,853.9,836,853.9,836s-129.1,138-140,175.4C702.9,1048.5,697.2,1184.7,746,1228.7z"/>
<g>
	<path class="st2" d="M966.9,1503.9l7.7-8.7C972,1498.1,969.4,1501,966.9,1503.9z"/>
	<path class="st2" d="M884.9,571c-31.2-21.9-74.1-14.4-96.1,16.8c-21.9,31.2-14.4,74.2,16.8,96.1c31.2,21.9,74.1,14.4,96.1-16.8
		C923.6,635.9,916.1,593,884.9,571z"/>
	<g>
		<path class="st1" d="M1834.4,897.9c-2.1-38.9-7.8-77.8-16.8-115.6c-0.6-2.5-1.1-5.1-1.9-7.6c-10.2-40.7-24.4-80.4-42.2-118.2
			c-5.8-12.4-12.1-24.5-18.7-36.5c-14-25.4-29.8-49.8-47-73c-26-35.1-56-67.8-88.8-97.3c-32.8-29.4-68.6-55.5-106.4-77.6
			c-36.8-21.5-75.9-39.4-116.2-53.2c-39.6-13.5-80.7-23.4-122.3-29.1c-41.2-5.7-83.1-7.3-124.6-5.1c-2.5,0.1-4.9,0.2-7.5,0.5
			c-0.7,0-1.4,0.1-2,0.1c-2,0.1-4,0.2-5.9,0.5c-0.6,0-1,0.1-1.6,0.1c-2.5,0.2-4.9,0.5-7.5,0.7c-0.4,0-0.7,0.1-1,0.1
			c-2.1,0.2-4.4,0.5-6.6,0.7c-0.6,0-1,0.1-1.6,0.1c-5.1,0.6-10.2,1.1-15.4,1.8c-0.4,0-0.7,0.1-1,0.1c-2.4,0.4-4.8,0.6-7,1
			c-0.2,0-0.6,0.1-0.9,0.1c-19.6,2.9-39,6.7-58.4,11.1c-1.8,0.5-3.5,0.9-5.3,1.3c-0.1,0-0.1,0-0.2,0.1c-1.6,0.5-3.4,0.9-5.1,1.3
			c-0.1,0-0.2,0.1-0.5,0.1c-1.6,0.5-3.3,0.9-4.9,1.3c-0.2,0-0.4,0.1-0.6,0.1c-1.6,0.5-3.3,0.9-4.8,1.3c-0.2,0-0.5,0.1-0.6,0.2
			c-1.6,0.5-3.2,1-4.8,1.3c-0.2,0.1-0.5,0.1-0.7,0.2c-1.6,0.5-3.2,1-4.8,1.4c-0.2,0.1-0.5,0.1-0.7,0.2c-1.6,0.5-3.2,1-4.8,1.4
			c-0.2,0.1-0.4,0.1-0.6,0.2c-1.6,0.5-3.2,1-4.8,1.5c-0.1,0-0.4,0.1-0.5,0.1c-1.6,0.5-3.3,1-4.9,1.6c-0.1,0-0.1,0-0.2,0
			c-7.1,2.4-14,5.5-21.3,7.3c-55.6,13.4-220.8,95-297.5,233.2C566.6,733.8,538.7,920.8,531,972.9c-0.4,0.9,1,7.6,0.8,8.6
			c-8.6,18.3-17.3,40.1-26.5,64.6c-39.7,102.2-114.2,299.3-168,459.7c-46.7,139-102,294.2-131.9,380.3
			c122.9-227.8,447.6-832.8,575.9-974c5.3-5.8,14.4-6.3,20.3-1c5.9,5.4,6.3,14.5,1.1,20.3c-130.9,144-566.9,965.2-566.9,965.2
			c1.8-1.3,526.2-600.7,526.2-600.7c3.6-4.1,7.1-8.2,10.7-12.2l-8.7-32.2l0.1-0.1c-7.6-27.3-14.7-64.4-15.8-83.3
			c-4.8-87.9,15.9-148.2,76.6-222.2c87.8-97.5,146.7-160.2,179.8-192.1c34.9-33.6,70.4-57.9,108.3-74.1
			c36.5-15.7,75.3-24.6,114.8-26.9c3.8-0.2,7.6-0.4,11.2-0.5c43.8-1,86.8,6.4,127.6,22c42.6,16.2,80.9,40.4,113.7,72.1
			c32.7,31.6,58.4,68.6,76.2,110.3c17.1,40.1,26.2,82.6,27,126.3c0.9,43.7-6.8,86.5-22.4,127.2c-15.8,41.2-39.2,78.2-69.5,110.3
			l-0.2,0.2l-0.2,0.2l-387.6,432.4l-0.2,0.2l-0.2,0.2c-64.2,75.4-95.9,171.4-89.4,270.5c1,16.7,3.7,35.4,6.8,51.4
			c51,10.1,100.9,15.3,154.4,16.4c47.3,1.1,106.1-4.7,111.2-5.2c-0.5-0.7-3.3-5.3-3.8-6.1c0-0.1-0.1-0.1-0.1-0.2
			c-0.5-0.7-1-1.4-1.4-2.1c0-0.1-0.1-0.1-0.1-0.2c-0.5-0.7-1-1.4-1.4-2.1c0-0.1-0.1-0.1-0.1-0.2c-0.5-0.7-1-1.4-1.4-2.1
			c0-0.1-0.1-0.1-0.1-0.2c-0.5-0.7-1-1.4-1.3-2.3c0-0.1-0.1-0.1-0.1-0.2c-0.5-0.7-0.9-1.4-1.3-2.3c0-0.1-0.1-0.1-0.1-0.2
			c-0.5-0.7-0.9-1.4-1.3-2.3c0-0.1-0.1-0.1-0.1-0.2c-0.4-0.7-0.9-1.5-1.1-2.3c0-0.1-0.1-0.1-0.1-0.2c-0.4-0.7-0.9-1.5-1.1-2.3
			c0-0.1-0.1-0.2-0.1-0.2c-0.4-0.7-0.7-1.5-1-2.3c0-0.1-0.1-0.2-0.1-0.4c-0.4-0.7-0.7-1.5-1-2.3c0-0.1-0.1-0.2-0.1-0.4
			c-0.4-0.7-0.7-1.4-1-2.3c0-0.1-0.1-0.2-0.1-0.4c-0.4-0.7-0.6-1.4-1-2.1c-0.1-0.1-0.1-0.2-0.2-0.5c-0.4-0.7-0.6-1.4-0.9-2.1
			c-0.1-0.1-0.1-0.4-0.2-0.5c-0.2-0.7-0.6-1.4-0.9-2.1c-0.1-0.1-0.1-0.4-0.2-0.5c-0.2-0.7-0.5-1.4-0.7-2.1c-0.1-0.2-0.1-0.4-0.2-0.6
			c-0.2-0.7-0.5-1.4-0.7-2c-0.1-0.2-0.1-0.5-0.2-0.6c-0.2-0.7-0.5-1.3-0.7-2c-0.1-0.2-0.1-0.5-0.2-0.7c-0.2-0.6-0.4-1.3-0.6-1.9
			c-0.1-0.2-0.1-0.5-0.2-0.9c-0.2-0.6-0.4-1.3-0.6-1.9c-0.1-0.2-0.1-0.6-0.2-0.9c-0.1-0.6-0.4-1.1-0.5-1.8c-0.1-0.4-0.1-0.6-0.2-1
			c-0.1-0.6-0.2-1.1-0.5-1.8c-0.1-0.4-0.1-0.7-0.2-1c-0.1-0.6-0.2-1-0.4-1.6c-0.1-0.4-0.2-0.9-0.2-1.1c-0.1-0.5-0.2-1-0.4-1.4
			c-0.1-0.5-0.2-0.9-0.2-1.3c-0.1-0.5-0.1-0.9-0.2-1.3c-0.1-0.5-0.2-1-0.2-1.5c-0.1-0.4-0.1-0.9-0.2-1.1c-0.1-0.6-0.2-1-0.2-1.6
			c0-0.4-0.1-0.7-0.1-1c-0.1-0.6-0.2-1.1-0.2-1.8c0-0.2-0.1-0.6-0.1-0.9c-0.1-0.7-0.2-1.3-0.2-2c0-0.1,0-0.4,0-0.5
			c-0.5-3.7-0.9-7.3-1-11c-2-37.4,8.7-73.5,30.6-103.2c3-4.3,6.6-8.5,10.1-12.4l368.5-411.2l0.1-0.1l0.1-0.1l4.7-5.2
			c29.3-32.7,55.2-68.3,77.3-105.9c21.5-36.6,39.4-75.7,53.1-115.8c0.9-2.5,1.6-4.9,2.5-7.5c9.1-27.8,16.4-56.1,21.7-84.9
			c1.8-9.9,3.4-19.7,4.8-29.6C1834.9,981.1,1836.6,939.4,1834.4,897.9z M919.7,713.1c-22,31.2-64.9,38.7-96.1,16.8
			c-31.2-21.9-38.7-64.9-16.8-96.1c22-31.2,64.9-38.7,96.1-16.8C934.1,639,941.6,681.9,919.7,713.1z"/>
	</g>
</g>
<path class="st3" d="M967,332.3c523.8-28.7,971.8,372.8,1000.4,896.6c10.7,197.4-39.5,384.2-134.4,541.6
	c142.1-167.3,223-387.2,210.1-623.8c-26.8-489.8-445.7-865.1-935.5-838.3c-58.9,3.2-116.2,12.1-171.3,26.2
	C946.3,333.6,956.6,332.9,967,332.3z"/>
<ellipse transform="matrix(0.5749 -0.8182 0.8182 0.5749 -184.3445 992.0536)" class="st3" cx="862.6" cy="673.4" rx="36.8" ry="36.8"/>
<path class="st4" d="M528.9,995.9c35.9,0,71.5-10.5,102-30.5c37.8-24.6,65.3-62.3,77.6-105.9c2.1-7.7-2.4-15.7-10-17.8
	c-7.7-2.1-15.7,2.4-17.8,10c-10.4,36.9-33.6,68.6-65.6,89.6c-24.8,16.3-53.9,25-83.2,25.8c-0.7,4.2-1.4,8.5-2.1,12.6
	c-0.4,0.9-0.7,1.6-1,2.6c-2,4.3-3.9,8.9-5.9,13.5C524.7,995.9,527.1,995.9,528.9,995.9z"/>
<path class="st4" d="M863.2,571.5c13.5,0,26.7,2.6,39,7.8c12.8,5.3,24.3,13.1,34,23.2c18.7,19.5,28.8,45.2,28.3,72.3
	c-0.5,27-11.5,52.3-31.1,71l-0.6,0.6l-0.6,0.7L735.8,961.5c-10.6,9.4-19.2,14-26.2,14c-1.5,0-3-0.2-4.7-0.6
	c-13.9-3.7-22.2-18.1-18.5-31.8l0,0l0,0l0.1-0.4l38.8-145.5L752,697.1l8.7-33l2.5-9.2l0.6-2.5c0.1-0.6,0.4-1.3,0.5-1.9l0,0
	c4.4-19.3,14.3-36.9,28.6-50.7C812,581.5,836.9,571.5,863.2,571.5 M863.2,542.6c-32.5,0-64.9,12.1-90.2,36.4
	c-19.1,18.3-31.3,41.2-36.8,65.1L658.6,935l-0.1,0.4c-7.8,29.3,9.6,59.4,38.9,67.1c4.2,1,8.2,1.6,12.1,1.6c17.6,0,33-10.1,46.5-22.2
	l197.5-215.5c51.8-49.8,53.3-132.2,3.5-184.1C931.5,556.1,897.4,542.6,863.2,542.6L863.2,542.6z"/>
<path class="st3" d="M1909.8,125c47.4,119.3-10.5,254.4-129.6,302.4c-75.5,30.3-157.4,18.5-219.7-24.5
	c-20.7-14.4-190.4-18.1-190.4-18.1c73.1,128.6,231.9,186.6,372.9,129.9C1896.5,453,1971.1,278.7,1909.8,125L1909.8,125z"/>
</svg>
